<svg fill="#F4828B" xmlns="http://www.w3.org/2000/svg" xmlns:xlink="http://www.w3.org/1999/xlink" version="1.1" x="0px" y="0px" viewBox="0 0 130 130" style="enable-background:new 0 0 130 130;" xml:space="preserve"><g><path d="M39.4750977,35.9912109c1.9541016,0,3.9179688-0.6601563,5.5283203-2.0117188   c1.7626953-1.4785156,2.84375-3.5546875,3.0439453-5.8457031c0.2001953-2.2919922-0.5029297-4.5244141-1.9824219-6.2861328   c-1.4785156-1.7626953-3.5546875-2.84375-5.8457031-3.0439453c-2.2900391-0.2011719-4.5244141,0.5029297-6.2861328,1.9824219   c-1.7626953,1.4785156-2.84375,3.5546875-3.0439453,5.8466797c-0.2001953,2.2910156,0.5029297,4.5244141,1.9824219,6.2861328   C34.5727539,34.9462891,37.0151367,35.9912109,39.4750977,35.9912109z M32.8813477,26.8066406   c0.1542969-1.7597656,0.984375-3.3535156,2.3369141-4.4892578c1.2021484-1.0078125,2.6884766-1.546875,4.2392578-1.546875   c0.1943359,0,0.390625,0.0087891,0.5869141,0.0253906c1.7597656,0.1542969,3.3535156,0.984375,4.4892578,2.3369141   c1.1347656,1.3535156,1.6748047,3.0673828,1.5214844,4.8261719c-0.1542969,1.7597656-0.984375,3.3535156-2.3369141,4.4892578   c-1.3525391,1.1347656-3.0615234,1.6728516-4.8261719,1.5214844c-1.7597656-0.1542969-3.3535156-0.9833984-4.4892578-2.3359375   C33.2680664,30.2802734,32.7280273,28.5664063,32.8813477,26.8066406z"></path><path d="M25.940918,59.4316406c4.0996094,0,7.7421875-2.9443359,8.4775391-7.1171875   c0.8251953-4.6757813-2.3076172-9.1513672-6.984375-9.9765625c-4.6855469-0.8251953-9.1533203,2.3095703-9.9765625,6.9853516   c-0.8251953,4.6757813,2.3076172,9.1513672,6.984375,9.9765625C24.9458008,59.3886719,25.4467773,59.4316406,25.940918,59.4316406z    M19.4262695,49.6708984c0.3066406-1.7392578,1.2724609-3.2558594,2.71875-4.2685547   c1.125-0.7871094,2.4345703-1.1972656,3.7792969-1.1972656c0.3857422,0,0.7744141,0.0332031,1.1621094,0.1015625   c3.5908203,0.6337891,5.9960938,4.0703125,5.3632813,7.6601563s-4.0595703,5.9941406-7.6601563,5.3642578   C21.1987305,56.6972656,18.793457,53.2607422,19.4262695,49.6708984z"></path><path d="M70.3354492,97.8085938c1.2714844,3.4941406,4.5820313,5.6669922,8.1005859,5.6669922   c0.9765625,0,1.96875-0.1679688,2.9375-0.5205078c2.1621094-0.7861328,3.8876953-2.3681641,4.859375-4.4521484   c0.9726563-2.0849609,1.0742188-4.4238281,0.2871094-6.5849609c-1.6240234-4.4628906-6.578125-6.7685547-11.0371094-5.1474609   C71.0209961,88.3955078,68.7114258,93.3466797,70.3354492,97.8085938z M76.1665039,88.6494141   c0.7441406-0.2705078,1.5048828-0.3984375,2.2548828-0.3984375c2.7011719,0,5.2431641,1.6689453,6.2197266,4.3505859   c0.6044922,1.6601563,0.5253906,3.4550781-0.2207031,5.0556641s-2.0712891,2.8144531-3.7304688,3.4189453   c-3.4238281,1.2431641-7.2285156-0.5253906-8.4755859-3.9511719   C70.9682617,93.6992188,72.7416992,89.8974609,76.1665039,88.6494141z"></path><path d="M94.8520508,84.9267578c1.3525391,0.78125,2.8310547,1.1523438,4.2910156,1.1523438   c2.9785156,0,5.8798828-1.5449219,7.4736328-4.3046875c2.3740234-4.1123047,0.9599609-9.3896484-3.1523438-11.7646484   c-1.9921875-1.1494141-4.3115234-1.4521484-6.5351563-0.8603516c-2.2226563,0.5957031-4.0791016,2.0205078-5.2294922,4.0126953   C89.3256836,77.2753906,90.7397461,82.5527344,94.8520508,84.9267578z M93.4321289,74.1621094   c0.8828125-1.5292969,2.3085938-2.6230469,4.0146484-3.0800781c0.5693359-0.1533203,1.1474609-0.2285156,1.7226563-0.2285156   c1.1455078,0,2.2763672,0.3007813,3.2949219,0.8886719c3.1572266,1.8232422,4.2421875,5.875,2.4199219,9.0322266   c-1.8242188,3.1572266-5.8779297,4.2421875-9.0322266,2.4199219   C92.6948242,81.3720703,91.6098633,77.3203125,93.4321289,74.1621094z"></path><path d="M10.956543,126.8574219c-0.0273438,0.7080078-0.0429688,1.4189453-0.0498047,2.1328125   c-0.0029297,0.3300781,0.1572266,0.640625,0.4277344,0.8300781C11.5043945,129.9384766,11.7045898,130,11.9067383,130   c0.1191406,0,0.2392578-0.0214844,0.3535156-0.0644531c0.6669922-0.2519531,1.328125-0.5126953,1.984375-0.7802734   c6.0576172-2.4804688,11.9755859-6.1660156,17.5888672-10.9560547c3.0510254-2.6030884,5.9099121-5.5141602,8.5561523-8.6669312   c7.6943359,3.6668091,15.9675293,5.5419312,24.6157227,5.5419312c31.7236328,0,57.5322266-25.8134766,57.5322266-57.5419922   c0-6.2607422-0.9931641-12.4013672-2.953125-18.2490234c-0.0222168-0.0662842-0.0664063-0.1160278-0.1000977-0.1740723   c-0.0157471-0.0273438-0.019043-0.0584106-0.0375977-0.0847168c-0.0065918-0.0092773-0.0170898-0.0134277-0.0239258-0.0224609   c-0.0595703-0.0783081-0.1311035-0.1392212-0.2092285-0.1958618c-0.027832-0.0203247-0.0515137-0.045105-0.0810547-0.0621948   c-0.0769043-0.0446167-0.15979-0.0698242-0.2460938-0.0926514c-0.039917-0.0106812-0.0766602-0.0267944-0.1174316-0.0325317   c-0.0732422-0.0099487-0.1462402-0.0014038-0.2216797,0.0053101c-0.05896,0.0048828-0.1159668,0.0059814-0.1738281,0.0215454   c-0.0183105,0.0049438-0.036499,0.0007324-0.0546875,0.0067749c-0.050415,0.0169067-0.0866699,0.0524902-0.1323242,0.0762329   c-0.0443115,0.0223389-0.0926514,0.0299683-0.1342773,0.0595093c-2.9599609,2.1035156-6.4589844,3.2158203-10.1181641,3.2158203   c-9.6777344,0-17.5507813-7.8730469-17.5507813-17.5507813c0-5.1884766,2.2822266-10.0869141,6.2607422-13.4394531   c0.0517578-0.0435791,0.0805664-0.1013794,0.1210938-0.1524048c0.0197754-0.0248413,0.0476074-0.0391846,0.0654297-0.0663452   c0.0065918-0.0101929,0.0068359-0.0221558,0.0129395-0.0324707c0.0499268-0.0820923,0.0800781-0.1686401,0.104248-0.2597656   c0.0097656-0.0361328,0.0246582-0.0698853,0.0302734-0.1065063c0.0126953-0.085144,0.0063477-0.168457-0.0030518-0.2543945   c-0.0046387-0.0437012-0.00354-0.0864258-0.0137939-0.1291504c-0.0175781-0.0718384-0.0517578-0.1366577-0.0856934-0.2043457   c-0.0258789-0.0524292-0.0477295-0.104187-0.0828857-0.1517944c-0.012085-0.0162964-0.0152588-0.0362549-0.0284424-0.052002   c-0.0352783-0.0418701-0.083252-0.0635986-0.1235352-0.0982666c-0.034668-0.0304565-0.057373-0.0700073-0.097168-0.0960693   C87.168457,3.2539063,76.262207,0,65.0053711,0C33.2758789,0,7.4624023,25.8085938,7.4624023,57.5322266   c0,13.5592041,4.7923584,26.6705933,13.4921875,37.0166016c-2.3054199,3.8810425-4.2478027,7.9092407-5.7714844,12.0234375   C12.6196289,113.4941406,11.1977539,120.3193359,10.956543,126.8574219z M9.4624023,57.5322266   C9.4624023,26.9121094,34.378418,2,65.0053711,2c10.434082,0,20.5507813,2.9034424,29.3500977,8.394043   c-3.8085938,3.6819458-5.972168,8.7314453-5.972168,14.059082c0,10.7802734,8.7705078,19.5507813,19.5507813,19.5507813   c3.6193848,0,7.0969238-0.982666,10.1420898-2.8432617c1.626709,5.2692871,2.4614258,10.7676392,2.4614258,16.371582   c0,30.6259766-24.9121094,55.5419922-55.5322266,55.5419922c-8.1866455,0-16.0224609-1.7456055-23.3239746-5.1484375   c1.5793457-1.9863892,3.0810547-4.0534668,4.4814453-6.2116699c0.6849365,0.5231934,1.4365234,0.9456787,2.2575684,1.244873   c0.96875,0.3505859,1.9589844,0.5166016,2.9335938,0.515625c3.5244141,0,6.8378906-2.171875,8.1025391-5.6601563   c0.7900391-2.1679688,0.6884766-4.5117188-0.2871094-6.6005859c-0.9726563-2.0820313-2.6982422-3.6591797-4.8574219-4.4404297   C54.2075195,86.7357788,54.104248,86.7098999,54,86.6764526l6.5800781-14.5812378   c3.5646973-0.437439,6.5693359-2.0593872,8.2963867-4.5307617c0.9785156-1.4023438,0.7675781-3.3583984,0.5224609-5.6240234   c-0.2021484-1.8720703-0.4306641-3.9941406-0.0849609-6.2666016c0.9755859-6.40625,4.4082031-13.7089844,4.4433594-13.7822266   c0.1796875-0.3808594,0.1025391-0.8330078-0.1943359-1.1318359s-0.7480469-0.3798828-1.1308594-0.203125   c-0.7753906,0.3603516-19.0283203,8.8671875-22.4726563,13.7988281c-1.7287598,2.4766235-2.2163086,5.8578491-1.3952637,9.3504028   L38.3605957,73.7106934c-0.0888672-0.1817017-0.1669922-0.3670654-0.2692871-0.5437012   c-1.1445313-1.9941406-2.9980469-3.4208984-5.21875-4.0175781c-2.2275391-0.5996094-4.546875-0.2929688-6.5390625,0.8603516   c-1.9951172,1.1513672-3.421875,3.0087891-4.0175781,5.2294922s-0.2890625,4.5429688,0.8632813,6.5390625   c0.9483643,1.6367188,2.4090576,2.8980103,4.1235352,3.6173706c-1.8968506,2.3683472-3.6491699,4.8238525-5.2437744,7.3499146   C13.9332275,82.8414307,9.4624023,70.3965454,9.4624023,57.5322266z M47.220459,100.0140991   c1.8248291-2.9697266,3.4968262-6.0628662,4.9519043-9.2875366l1-2.2158813   c0.1520996,0.0435181,0.3044434,0.0875854,0.4589844,0.1436157c1.65625,0.5996094,2.9794922,1.8095703,3.7255859,3.40625   c0.7490234,1.6035156,0.8271484,3.4033203,0.2197266,5.0703125c-1.2392578,3.4169922-5.0390625,5.1875-8.4746094,3.9482422   C48.4145508,100.8280029,47.7839355,100.4707031,47.220459,100.0140991z M67.4106445,62.1552734   c0.2011719,1.8652344,0.375,3.4765625-0.1738281,4.2646484c-1.9682617,2.8167114-5.3847656,3.5352173-7.0737305,3.7219849   l-9.6256104-6.7216187c-0.4082031-1.6576538-0.899292-5.1104126,1.0626221-7.9202881   c2.2646484-3.2431641,13.0996094-8.9736328,19.2666016-11.9804688c-1.140625,2.7744141-2.859375,7.4492188-3.5292969,11.8535156   C66.9516602,57.9023438,67.206543,60.2607422,67.4106445,62.1552734z M58.6450195,71.5214844l-3.5085449,7.7755127   L43.678833,71.296814l6.0911865-5.9725952L58.6450195,71.5214844z M36.8339844,75.2077026l-2.8637695,2.8079224   c-1.8758545,1.8395996-3.6499023,3.7624512-5.326416,5.7489624c-1.5610352-0.4902344-2.9023438-1.5535889-3.7331543-2.9872437   c-0.8847656-1.5322266-1.1201172-3.3154297-0.6630859-5.0205078c0.4570313-1.7041016,1.5527344-3.1298828,3.0869141-4.015625   c1.5302734-0.8837891,3.3125-1.1201172,5.0185547-0.6611328c1.7041016,0.4580078,3.1259766,1.5527344,4.0058594,3.0859375   C36.5544434,74.5042114,36.704834,74.854126,36.8339844,75.2077026z M35.3706055,79.4433594l6.8549805-6.7214966   l12.0737305,8.4304199l-3.9492188,8.7520142c-4.7382813,10.4990234-11.5908203,19.7568359-19.8154297,26.7734375   c-5.4511719,4.6513672-11.1865234,8.2265625-17.046875,10.6259766c-0.1845703,0.0751953-0.3681641,0.1494141-0.5527344,0.2236328   c0.0058594-0.1982422,0.0126953-0.3964844,0.0195313-0.5947266c0.2333984-6.3271484,1.6142578-12.9433594,4.1035156-19.6650391   C20.8129883,97.1308594,27.1450195,87.5097656,35.3706055,79.4433594z"></path></g></svg>