<svg fill="#303D72" xmlns="http://www.w3.org/2000/svg" xmlns:xlink="http://www.w3.org/1999/xlink" version="1.1" x="0px" y="0px" viewBox="0 0 130 130" style="enable-background:new 0 0 130 130;" xml:space="preserve"><g><path d="M16.623291,1.0004883v128c0,0.5527344,0.4477539,1,1,1h94.659668c0.5517578,0,0.9995117-0.4472656,1-0.9990234   l0.09375-104.15625c0-0.0218506-0.0110474-0.0401611-0.0123901-0.0617676   c-0.0056763-0.0908203-0.0232544-0.1782227-0.0531006-0.2641602c-0.0112305-0.0322266-0.0193481-0.0639648-0.0336914-0.0944824   c-0.0476074-0.1025391-0.1079102-0.1994629-0.1901855-0.2827148c-0.0014038-0.0014648-0.0020142-0.0031738-0.003418-0.0046387   c-0.000061,0-0.0001221-0.0001221-0.0001831-0.0002441L89.2406616,0.2941895   c-0.0015259-0.0014648-0.003418-0.0024414-0.0049438-0.0039063c-0.0836182-0.0827637-0.1810303-0.1433105-0.2839355-0.1912842   c-0.0289307-0.0135498-0.05896-0.0212402-0.0893555-0.0319824c-0.0890503-0.0316162-0.1798096-0.0499268-0.2741089-0.0552979   c-0.0193481-0.0010986-0.0357056-0.0112305-0.0553589-0.0112305H17.623291   C17.0710449,0.0004883,16.623291,0.4477539,16.623291,1.0004883z M89.532959,3.4145508l20.4296875,20.4296875H89.532959V3.4145508z    M18.623291,2.0004883h68.909668v22.84375c0,0.5527344,0.4477539,1,1,1h22.8428345l-0.0918579,102.15625H18.623291V2.0004883z"></path><path d="M83.6799316,84.0209961c-9.1616211,0-16.6147461,7.453125-16.6147461,16.6142578   c0,9.1621094,7.453125,16.6152344,16.6147461,16.6152344s16.6147461-7.453125,16.6147461-16.6152344   C100.2946777,91.4741211,92.8415527,84.0209961,83.6799316,84.0209961z M83.6799316,115.2504883   c-8.0585938,0-14.6147461-6.5566406-14.6147461-14.6152344s6.5561523-14.6142578,14.6147461-14.6142578   s14.6147461,6.5556641,14.6147461,14.6142578S91.7385254,115.2504883,83.6799316,115.2504883z"></path><path d="M91.0197754,94.347168l-10.4560547,10.4560547l-4.2236328-4.2236328c-0.390625-0.390625-1.0234375-0.390625-1.4140625,0   s-0.390625,1.0234375,0,1.4140625l4.9306641,4.9306641c0.1953125,0.1953125,0.4511719,0.2929688,0.7070313,0.2929688   s0.5117188-0.0976563,0.7070313-0.2929688l11.1630859-11.1630859c0.390625-0.390625,0.390625-1.0234375,0-1.4140625   S91.4104004,93.956543,91.0197754,94.347168z"></path><path d="M30.7058105,14.7504883h44.6665039c0.5522461,0,1-0.4472656,1-1s-0.4477539-1-1-1H30.7058105c-0.5522461,0-1,0.4472656-1,1   S30.1535645,14.7504883,30.7058105,14.7504883z"></path><path d="M30.7058105,30.4125977h52c0.5522461,0,1-0.4472656,1-1s-0.4477539-1-1-1h-52c-0.5522461,0-1,0.4472656-1,1   S30.1535645,30.4125977,30.7058105,30.4125977z"></path><path d="M30.7058105,46.074707h55.4106445c0.5522461,0,1-0.4472656,1-1s-0.4477539-1-1-1H30.7058105c-0.5522461,0-1,0.4472656-1,1   S30.1535645,46.074707,30.7058105,46.074707z"></path><path d="M30.7058105,61.7368164h66.3330078c0.5522461,0,1-0.4472656,1-1s-0.4477539-1-1-1H30.7058105c-0.5522461,0-1,0.4472656-1,1   S30.1535645,61.7368164,30.7058105,61.7368164z"></path><path d="M94.0388184,74.2504883c0-0.5527344-0.4477539-1-1-1H30.7058105c-0.5522461,0-1,0.4472656-1,1s0.4477539,1,1,1h62.3330078   C93.5910645,75.2504883,94.0388184,74.8032227,94.0388184,74.2504883z"></path></g></svg>