<svg fill="#FEC900" xmlns="http://www.w3.org/2000/svg" xmlns:xlink="http://www.w3.org/1999/xlink" version="1.1" x="0px" y="0px" viewBox="0 0 130 130" style="enable-background:new 0 0 130 130;" xml:space="preserve"><g><path d="M65,0C39.3847656,0,18.5449219,21.8061523,18.5449219,48.609375c0,26.355957,43.8242188,78.8134766,45.6894531,81.0336914   C64.4248047,129.8696289,64.7050781,130,65,130s0.5751953-0.1303711,0.765625-0.3569336   c1.8652344-2.2202148,45.6894531-54.6777344,45.6894531-81.0336914C111.4550781,21.8061523,90.6152344,0,65,0z M65,127.4311523   c-5.953125-7.2480469-44.4550781-55.0532227-44.4550781-78.8217773C20.5449219,22.9086914,40.4873047,2,65,2   s44.4550781,20.9086914,44.4550781,46.609375C109.4550781,72.3779297,70.953125,120.1831055,65,127.4311523z"></path><path d="M65,14.9033203c-17.4257813,0-31.6035156,14.1777344-31.6035156,31.6040039S47.5742188,78.1113281,65,78.1113281   c17.4267578,0,31.6044922-14.1777344,31.6044922-31.6040039S82.4267578,14.9033203,65,14.9033203z M65,76.1113281   c-16.3232422,0-29.6035156-13.2802734-29.6035156-29.6040039S48.6767578,16.9033203,65,16.9033203   c16.3242188,0,29.6044922,13.2802734,29.6044922,29.6040039S81.3242188,76.1113281,65,76.1113281z"></path></g></svg>