<svg fill="#F4828B" xmlns="http://www.w3.org/2000/svg" xmlns:xlink="http://www.w3.org/1999/xlink" version="1.1" x="0px" y="0px" viewBox="0 0 130 130" style="enable-background:new 0 0 130 130;" xml:space="preserve"><g><path d="M65.0009766,32.1870117c-0.0002441,0-0.0004883,0-0.0006104,0s-0.0002441,0-0.0003662,0   c-0.0004883,0-0.0009766,0.000061-0.0013428,0.000061C40.5219727,32.1878052,17.519043,43.6144409,0.2314453,64.3598633   c-0.3085938,0.3706055-0.3085938,0.909668,0,1.2802734c17.277832,20.7336426,40.2613525,32.1574097,64.7220459,32.1716919   c0.015625,0,0.0308838,0.0011597,0.0465088,0.0011597c0.0146484,0,0.0291748-0.0010986,0.0439453-0.0010986   c24.4614258-0.0134277,47.4466553-11.4373169,64.7246094-32.1722412c0.3085938-0.3706055,0.3085938-0.909668,0-1.2802734   C112.4804688,43.612793,89.4785156,32.1870117,65.0009766,32.1870117z M2.3056641,64.9995117   c13.3303223-15.7352905,30.0419922-25.8599243,48.1452637-29.399353C39.638916,40.9727783,32.1875,52.1298828,32.1875,65   c0,12.8692627,7.4504395,24.0256958,18.2612305,29.3987427C32.3461914,90.8591309,15.635498,80.7346191,2.3056641,64.9995117z    M65.043457,95.8118896c-0.0141602,0-0.0283203,0.0006104-0.0424805,0.0006104c-0.015625,0-0.03125-0.0006714-0.046875-0.0006714   C47.9851074,95.7866821,34.1875,81.9747925,34.1875,65c0-16.9902344,13.8222656-30.8129883,30.8125-30.8129883   S95.8134766,48.0097656,95.8134766,65C95.8134766,81.975647,82.0136719,95.7880859,65.043457,95.8118896z M79.5522461,94.3985596   C90.3632813,89.0254517,97.8134766,77.8690796,97.8134766,65c0-12.8701172-7.451416-24.0272217-18.2636719-29.3998413   c18.1035156,3.5394287,34.8146973,13.6640625,48.1445313,29.399353   C114.3652344,80.734314,97.6544189,90.8588257,79.5522461,94.3985596z"></path><path d="M65,53.324707c-6.4375,0-11.6748047,5.2373047-11.6748047,11.6748047C53.3251953,71.4375,58.5625,76.675293,65,76.675293   S76.6748047,71.4375,76.6748047,64.9995117C76.6748047,58.5620117,71.4375,53.324707,65,53.324707z M65,74.675293   c-5.3349609,0-9.6748047-4.340332-9.6748047-9.6757813c0-5.3344727,4.3398438-9.6748047,9.6748047-9.6748047   s9.6748047,4.340332,9.6748047,9.6748047C74.6748047,70.3349609,70.3349609,74.675293,65,74.675293z"></path><path d="M99.3261719,17.4379883l-2.84375,11.4038086c-0.1328125,0.5361328,0.1923828,1.0786133,0.7285156,1.2124023   c0.0810547,0.0205078,0.1630859,0.0297852,0.2431641,0.0297852c0.4482422,0,0.8554688-0.3032227,0.9697266-0.7578125   l2.84375-11.4038086c0.1328125-0.5361328-0.1923828-1.0786133-0.7285156-1.2124023   C100.0009766,16.5712891,99.4599609,16.9018555,99.3261719,17.4379883z"></path><path d="M81.765625,14.0537109l-1.4316406,11.6855469c-0.0673828,0.5478516,0.3222656,1.046875,0.8701172,1.1142578   c0.0419922,0.0048828,0.0830078,0.0073242,0.1230469,0.0073242c0.4980469,0,0.9296875-0.371582,0.9912109-0.878418L83.75,14.296875   c0.0673828-0.5483398-0.3222656-1.046875-0.8710938-1.1142578C82.3251953,13.1137695,81.8320313,13.5063477,81.765625,14.0537109z"></path><path d="M64,13.0073242v11.7792969c0,0.5522461,0.4472656,1,1,1s1-0.4477539,1-1V13.0073242c0-0.5527344-0.4482422-1-1-1   C64.4472656,12.0073242,64,12.4550781,64,13.0073242z"></path><path d="M47.1220703,13.1826172c-0.5488281,0.0673828-0.9384766,0.565918-0.8710938,1.1142578l1.4306641,11.6855469   c0.0615234,0.5068359,0.4931641,0.878418,0.9912109,0.878418c0.0400391,0,0.0810547-0.0024414,0.1220703-0.0073242   c0.5488281-0.0673828,0.9384766-0.565918,0.8710938-1.1142578l-1.4306641-11.6855469   C48.1689453,13.5058594,47.6699219,13.1118164,47.1220703,13.1826172z"></path><path d="M29.4609375,16.7099609c-0.5361328,0.1337891-0.8613281,0.6762695-0.7285156,1.2124023l2.8447266,11.402832   c0.1142578,0.4545898,0.5214844,0.7578125,0.9697266,0.7578125c0.0800781,0,0.1621094-0.0092773,0.2431641-0.0297852   c0.5361328-0.1337891,0.8613281-0.6762695,0.7285156-1.2124023l-2.8447266-11.402832   C30.5390625,16.9018555,29.9960938,16.5722656,29.4609375,16.7099609z"></path><path d="M100.2958984,113.3193359c0.0800781,0,0.1621094-0.0092773,0.2431641-0.0297852   c0.5361328-0.1337891,0.8613281-0.6762695,0.7285156-1.2124023l-2.84375-11.4033203   c-0.1347656-0.5356445-0.6796875-0.8652344-1.2128906-0.7280273c-0.5361328,0.1337891-0.8613281,0.6762695-0.7285156,1.2124023   l2.84375,11.4033203C99.4404297,113.0161133,99.8476563,113.3193359,100.2958984,113.3193359z"></path><path d="M82.7568359,116.8242188c0.0400391,0,0.0810547-0.0024414,0.1220703-0.0073242   c0.5488281-0.0673828,0.9384766-0.565918,0.8710938-1.1142578l-1.4316406-11.6855469   c-0.0664063-0.5478516-0.5527344-0.9399414-1.1142578-0.8710938c-0.5478516,0.0673828-0.9375,0.5664063-0.8701172,1.1142578   l1.4316406,11.6855469C81.8271484,116.4526367,82.2587891,116.8242188,82.7568359,116.8242188z"></path><path d="M66,116.9926758v-11.7792969c0-0.5522461-0.4472656-1-1-1s-1,0.4477539-1,1v11.7792969c0,0.5522461,0.4472656,1,1,1   C65.5517578,117.9926758,66,117.5449219,66,116.9926758z"></path><path d="M47.2441406,116.8242188c0.4980469,0,0.9296875-0.371582,0.9912109-0.878418l1.4306641-11.6855469   c0.0673828-0.5483398-0.3222656-1.046875-0.8710938-1.1142578c-0.5527344-0.0668945-1.046875,0.3232422-1.1132813,0.8710938   l-1.4306641,11.6855469c-0.0673828,0.5483398,0.3222656,1.046875,0.8710938,1.1142578   C47.1630859,116.8217773,47.2041016,116.8242188,47.2441406,116.8242188z"></path><path d="M29.7041016,113.3198242c0.4482422,0,0.8554688-0.3032227,0.9697266-0.7578125l2.8447266-11.4033203   c0.1328125-0.5361328-0.1923828-1.0786133-0.7285156-1.2124023c-0.5361328-0.1352539-1.078125,0.1918945-1.2128906,0.7280273   l-2.8447266,11.4033203c-0.1328125,0.5361328,0.1923828,1.0786133,0.7285156,1.2124023   C29.5419922,113.3105469,29.6240234,113.3198242,29.7041016,113.3198242z"></path></g></svg>