<svg fill="#FEC900" xmlns="http://www.w3.org/2000/svg" xmlns:xlink="http://www.w3.org/1999/xlink" version="1.1" x="0px" y="0px" viewBox="0 0 130 130" style="enable-background:new 0 0 130 130;" xml:space="preserve"><g><path d="M113.9990234,40.1832886V10.3963013c0-3.2128906-1.6386719-6.1289063-4.3828125-7.7998047   c-2.7451172-1.6689453-6.0878906-1.7871094-8.9418945-0.3115234L43.2841187,31.9607544H7.1259766   C3.1967773,31.9607544,0,35.1570435,0,39.086731v35.4091797c0,3.9296875,3.1967773,7.1259766,7.1259766,7.1259766h3.3255005   l3.6593628,42.6806641c0.2104492,2.4492188,2.5107422,4.4414063,5.128418,4.4414063h15.9467773   c0.8544922,0,1.6787109-0.2119141,2.3837891-0.6113281c1.8125-1.0244141,2.4956055-3.2636719,1.6235352-5.3232422   c-5.4636841-12.9089355-6.5720825-26.3915405-3.4030151-41.1875h7.4938354l57.3901367,29.6748047   c1.3300781,0.6875,2.7666016,1.0292969,4.1987305,1.0292969c1.6411133,0,3.2768555-0.4482422,4.7421875-1.3408203   c2.7451172-1.6699219,4.3837891-4.5859375,4.3837891-7.7998047v-29.102417C122.9072876,73.5608521,130,66.1691284,130,57.1326294   S122.9072876,40.7053833,113.9990234,40.1832886z M37.3515625,123.5886841   c0.4765625,1.1259766,0.1616211,2.2792969-0.7670898,2.8037109c-0.4057617,0.2304688-0.8891602,0.3515625-1.3984375,0.3515625   H19.2392578c-1.6054688,0-3.012207-1.171875-3.1352539-2.6113281l-3.6450195-42.5107422h21.2768555   C30.5878906,96.6687622,31.7734375,110.4099731,37.3515625,123.5886841z M42.5283203,79.6218872h-7.5527344h-23.605957H7.1259766   C4.2993164,79.6218872,2,77.3220825,2,74.4959106V39.086731c0-2.8261719,2.2993164-5.1259766,5.1259766-5.1259766h35.4023438   V79.6218872z M99.0976563,108.2290039L44.5283203,80.0134888V33.5691528L99.0976563,5.3527222V108.2290039z    M111.9990234,103.1853638c0,2.5097656-1.2797852,4.7871094-3.4238281,6.0917969   c-2.1435547,1.3037109-4.753418,1.3964844-6.9819336,0.2421875l-0.4956055-0.2562866V4.3186035l0.4956055-0.2562866   c2.2285156-1.1523438,4.8393555-1.0634766,6.9829102,0.2431641c2.1430664,1.3046875,3.4228516,3.5820313,3.4228516,6.0908203   V103.1853638z M113.9990234,72.0829468V42.1832886C121.8040161,42.7017822,128,49.1986694,128,57.1326294   S121.8040161,71.5644531,113.9990234,72.0829468z"></path></g></svg>