<svg fill="#00C99C" xmlns="http://www.w3.org/2000/svg" xmlns:xlink="http://www.w3.org/1999/xlink" version="1.1" x="0px" y="0px" viewBox="0 0 512 512" style="enable-background:new 0 0 512 512;" xml:space="preserve"><g><g><g><path d="M331,481H171c-1.6,0-3.06-0.73-4.01-2.021c-0.96-1.279-1.24-2.89-0.78-4.42l30-100c0.63-2.09,2.6-3.56,4.79-3.56h100     c2.189,0,4.16,1.47,4.79,3.56l30,100l0,0c0.46,1.53,0.17,3.141-0.78,4.42C334.06,480.27,332.6,481,331,481z M177.72,471H324.28     l-27-90H204.72L177.72,471z"></path></g><circle cx="250.535" cy="336.931" r="10.93"></circle><g><path d="M381,481H121c-2.76,0-5-2.24-5-5s2.24-5,5-5h260c2.76,0,5,2.24,5,5S383.76,481,381,481z"></path></g><g><path d="M101,311H21c-2.76,0-5-2.24-5-5s2.24-5,5-5h80c2.76,0,5,2.24,5,5S103.76,311,101,311z"></path></g><g><path d="M481,311H161c-2.76,0-5-2.24-5-5s2.24-5,5-5h320c2.76,0,5,2.24,5,5S483.76,311,481,311z"></path></g><rect x="341" y="256" width="20" height="20"></rect><rect x="371" y="256" width="20" height="20"></rect><rect x="401" y="256" width="20" height="20"></rect><g><path d="M451,311c-2.76,0-5-2.24-5-5V81h-55c-2.76,0-5-2.24-5-5c0-2.76,2.24-5,5-5h60c1.31,0,2.6,0.53,3.54,1.46     c0.93,0.93,1.46,2.22,1.46,3.54v230C456,308.76,453.76,311,451,311z M61,311c-2.76,0-5-2.24-5-5V76c0-1.32,0.53-2.61,1.46-3.54     C58.39,71.53,59.68,71,61,71h270c2.76,0,5,2.24,5,5c0,2.76-2.24,5-5,5H66v225C66,308.76,63.76,311,61,311z M361,81     c-2.76,0-5-2.24-5-5c0-2.76,2.24-5,5-5s5,2.24,5,5C366,78.76,363.76,81,361,81z"></path></g><g><path d="M467.33,381H44.67c-7.66,0-14.86-2.98-20.27-8.4c-5.42-5.41-8.4-12.609-8.4-20.27v-40.141c0-2.76,2.24-5,5-5     c2.76,0,5,2.24,5,5v40.141c0.02,10.279,8.39,18.649,18.67,18.67h422.66c10.279-0.021,18.649-8.391,18.67-18.67V59.67     c-0.021-10.28-8.391-18.65-18.67-18.67h-92.36c-0.01,0-0.01,0-0.02,0c-2.761,0-5-2.24-5-5c0-2.76,2.239-5,5-5h92.38     c7.66,0,14.859,2.98,20.27,8.4c5.42,5.41,8.4,12.61,8.4,20.27v292.66c0,7.66-2.98,14.859-8.4,20.27     C482.189,378.02,474.99,381,467.33,381z M21,287.189c-2.76,0-5-2.239-5-5c0-2.76,2.24-5,5-5c2.76,0,5,2.24,5,5     C26,284.95,23.76,287.189,21,287.189z M21,257.189c-2.76,0-5-2.24-5-5V59.67c0-7.66,2.98-14.86,8.4-20.27     c5.41-5.42,12.61-8.4,20.27-8.4h270.28c2.76,0,5,2.24,5,5c0,2.76-2.24,5-5,5H44.67C34.39,41.02,26.02,49.39,26,59.67v192.52     C26,254.95,23.76,257.189,21,257.189z M344.95,41c-2.761,0-5-2.24-5-5c0-2.76,2.239-5,5-5c2.76,0,5,2.24,5,5     C349.95,38.76,347.71,41,344.95,41z"></path></g><g><path d="M160.5,139.89c-3.7,0-7.52-0.78-11.36-2.32c-4.19-1.68-8.43-4.28-12.57-7.71c-6.32-5.2-12.08-7.73-17.63-7.75     c-3.48,0-6.8,1.06-9.86,3.15c-2.58,1.76-4.02,3.66-4.03,3.68c-0.94,1.29-2.46,2.06-4.05,2.06c-1.06,0-2.08-0.33-2.94-0.95     c-1.08-0.79-1.79-1.95-2-3.27c-0.21-1.32,0.11-2.64,0.9-3.72l0.01-0.02c0.66-0.88,2.53-3.17,5.75-5.53     c3.37-2.46,8.92-5.4,16.22-5.4H119c3.7,0,7.52,0.78,11.36,2.32c4.19,1.68,8.42,4.27,12.57,7.71c6.32,5.19,12.08,7.73,17.63,7.75     c3.48,0,6.8-1.06,9.86-3.15c2.47-1.69,3.92-3.52,4.03-3.67c0-0.01,0.01-0.01,0.01-0.02c0,0,0,0,0.01,0     c0.93-1.28,2.44-2.05,4.03-2.05c1.06,0,2.08,0.33,2.94,0.95c2.23,1.63,2.73,4.76,1.1,6.99l-0.02,0.03     c-0.66,0.88-2.54,3.18-5.74,5.52c-3.37,2.46-8.92,5.4-16.22,5.4C160.54,139.89,160.52,139.89,160.5,139.89z"></path></g><g><path d="M238.07,139.89H238c-3.7,0-7.52-0.78-11.36-2.32c-4.19-1.68-8.42-4.28-12.57-7.72c-6.32-5.18-12.08-7.72-17.63-7.74     c-3.48,0-6.79,1.06-9.86,3.15c-2.56,1.75-4.03,3.67-4.04,3.69l-0.01,0.01c-0.94,1.28-2.45,2.04-4.04,2.04     c-1.06,0-2.07-0.33-2.93-0.95c-2.23-1.63-2.73-4.76-1.1-6.99l0.01-0.02c0.65-0.87,2.52-3.16,5.75-5.53     c3.37-2.46,8.92-5.4,16.22-5.4h0.06c3.7,0,7.52,0.78,11.35,2.32c4.2,1.68,8.43,4.27,12.58,7.71c6.32,5.19,12.08,7.73,17.63,7.75     c3.48,0,6.8-1.06,9.86-3.15c2.45-1.67,3.91-3.52,4.03-3.67c0-0.01,0-0.01,0.01-0.02c0.94-1.28,2.45-2.05,4.04-2.05     c1.06,0,2.08,0.33,2.939,0.96c2.23,1.62,2.721,4.75,1.101,6.98l-0.01,0.02c-0.66,0.88-2.53,3.17-5.75,5.53     C250.91,136.95,245.36,139.89,238.07,139.89z"></path></g><g><path d="M315.56,139.89h-0.06c-3.7,0-7.521-0.78-11.36-2.32c-4.189-1.68-8.43-4.28-12.57-7.72c-6.319-5.19-12.09-7.72-17.63-7.74     c-3.479,0-6.79,1.06-9.859,3.15c-2.471,1.69-3.92,3.53-4.03,3.67v0.01c-0.94,1.29-2.46,2.06-4.05,2.06     c-1.06,0-2.08-0.33-2.94-0.95c-1.08-0.79-1.79-1.95-2-3.27c-0.21-1.32,0.11-2.64,0.89-3.72l0.02-0.03     c0.66-0.87,2.54-3.17,5.75-5.52c3.37-2.46,8.92-5.4,16.21-5.4H274c3.7,0,7.52,0.78,11.35,2.32c4.2,1.68,8.431,4.27,12.58,7.71     c6.32,5.19,12.08,7.73,17.63,7.75c3.48,0,6.79-1.06,9.86-3.15c2.54-1.74,4.02-3.66,4.03-3.68c0.01,0,0.01-0.01,0.01-0.01     c0.939-1.28,2.45-2.05,4.04-2.05c1.06,0,2.08,0.33,2.939,0.96c2.23,1.62,2.721,4.75,1.101,6.98l-0.01,0.02     c-0.66,0.88-2.53,3.17-5.75,5.52C328.41,136.95,322.859,139.89,315.56,139.89z"></path></g><g><path d="M393.06,139.89H393c-3.7,0-7.521-0.78-11.36-2.32c-4.2-1.68-8.43-4.28-12.58-7.72c-6.31-5.18-12.069-7.72-17.62-7.74     c-3.479,0-6.79,1.06-9.859,3.15c-2.54,1.74-4.021,3.66-4.04,3.68c-0.931,1.29-2.45,2.06-4.04,2.06c-1.061,0-2.08-0.33-2.94-0.95     c-2.229-1.63-2.729-4.76-1.1-6.99l0.01-0.02c0.5-0.68,2.42-3.09,5.75-5.53c3.37-2.46,8.92-5.4,16.22-5.4h0.061     c3.7,0,7.52,0.78,11.35,2.32c4.2,1.68,8.431,4.27,12.58,7.71c6.32,5.2,12.09,7.73,17.63,7.75c3.48,0,6.79-1.06,9.86-3.15     c2.56-1.75,4.02-3.66,4.03-3.68l0.01-0.01l0.01-0.01c0.94-1.28,2.45-2.04,4.03-2.04c1.06,0,2.08,0.33,2.939,0.96     c2.23,1.62,2.721,4.75,1.101,6.98l-0.01,0.02c-0.511,0.68-2.421,3.09-5.75,5.52C405.91,136.95,400.35,139.89,393.06,139.89z"></path></g><g><path d="M160.57,181h-0.07c-3.7,0-7.52-0.78-11.36-2.32c-4.19-1.68-8.43-4.27-12.57-7.71c-6.32-5.19-12.08-7.73-17.63-7.75     c-3.48,0-6.8,1.06-9.86,3.15c-2.58,1.76-4.02,3.66-4.03,3.68c-0.94,1.29-2.46,2.06-4.05,2.06c-1.06,0-2.08-0.33-2.94-0.95     c-2.23-1.63-2.73-4.76-1.1-6.99l0.01-0.02c0.66-0.88,2.53-3.17,5.75-5.52c3.37-2.47,8.91-5.41,16.21-5.41h0.08     c3.69,0,7.51,0.78,11.35,2.32c4.2,1.68,8.43,4.28,12.57,7.72c6.32,5.18,12.08,7.72,17.63,7.74c3.48,0,6.8-1.06,9.86-3.15     c2.47-1.69,3.92-3.52,4.03-3.67c0-0.01,0.01-0.01,0.01-0.01c0-0.01,0-0.01,0.01-0.01c0.93-1.28,2.44-2.05,4.03-2.05     c1.06,0,2.08,0.33,2.94,0.96c2.23,1.62,2.73,4.75,1.1,6.98l-0.02,0.03c-0.66,0.88-2.54,3.18-5.74,5.52     C173.41,178.06,167.86,181,160.57,181z"></path></g><g><path d="M238.07,181h-0.08c-3.69,0-7.51-0.78-11.35-2.32c-4.2-1.68-8.43-4.27-12.57-7.71c-6.32-5.19-12.08-7.73-17.63-7.75     c-3.48,0-6.8,1.06-9.86,3.16c-2.5,1.7-3.96,3.57-4.03,3.67c0,0,0,0-0.01,0c-0.93,1.29-2.45,2.06-4.04,2.06     c-1.06,0-2.08-0.33-2.94-0.95c-1.08-0.79-1.79-1.95-2-3.27c-0.21-1.32,0.11-2.64,0.9-3.72v-0.01c0.51-0.68,2.41-3.09,5.76-5.53     c3.37-2.47,8.92-5.41,16.22-5.41h0.06c3.7,0,7.52,0.78,11.36,2.32c4.19,1.68,8.43,4.28,12.57,7.72     c6.32,5.19,12.09,7.72,17.63,7.74c3.48,0,6.79-1.06,9.86-3.15c2.46-1.68,3.94-3.55,4.03-3.67c0,0,0-0.01,0.01-0.01v-0.01     c0.01,0,0.01,0,0.01-0.01c0.94-1.28,2.45-2.04,4.03-2.04c1.06,0,2.08,0.33,2.939,0.96c2.23,1.62,2.721,4.75,1.101,6.98     l-0.021,0.03c-0.66,0.88-2.54,3.18-5.74,5.52C250.91,178.06,245.36,181,238.07,181z"></path></g><g><path d="M315.56,181h-0.06c-3.7,0-7.521-0.78-11.36-2.32c-4.189-1.68-8.43-4.27-12.57-7.71c-6.319-5.19-12.09-7.73-17.63-7.75     c-3.479,0-6.79,1.06-9.859,3.15c-2.46,1.69-3.91,3.52-4.03,3.67v0.01c-0.94,1.29-2.46,2.06-4.05,2.06     c-1.06,0-2.08-0.33-2.94-0.95c-2.23-1.62-2.73-4.76-1.11-6.99l0.02-0.02c0.66-0.88,2.54-3.18,5.75-5.52     c3.37-2.47,8.92-5.41,16.21-5.41H274c3.7,0,7.52,0.78,11.35,2.32c4.2,1.68,8.431,4.28,12.58,7.72     c6.32,5.19,12.08,7.72,17.63,7.74c3.48,0,6.8-1.06,9.86-3.15c2.55-1.74,4.02-3.66,4.03-3.68c0.01,0,0.01-0.01,0.01-0.01     c0.939-1.28,2.45-2.05,4.04-2.05c1.06,0,2.08,0.33,2.939,0.96c2.23,1.62,2.721,4.75,1.101,6.98l-0.01,0.02     c-0.66,0.88-2.53,3.17-5.75,5.53C328.41,178.06,322.85,181,315.56,181z"></path></g><g><path d="M393.069,181H393c-3.7,0-7.521-0.78-11.36-2.32c-4.2-1.68-8.43-4.27-12.58-7.71c-6.31-5.19-12.08-7.73-17.62-7.75     c-3.479,0-6.79,1.06-9.859,3.15c-2.54,1.74-4.021,3.66-4.04,3.68c-0.931,1.29-2.45,2.06-4.04,2.06c-1.061,0-2.08-0.33-2.94-0.95     c-1.08-0.79-1.79-1.95-2-3.27c-0.21-1.31,0.11-2.64,0.9-3.72l0.01-0.01c0.51-0.69,2.42-3.1,5.75-5.53     c3.37-2.47,8.92-5.41,16.21-5.41h0.07c3.7,0,7.52,0.78,11.359,2.32c4.19,1.68,8.421,4.28,12.57,7.72     c6.32,5.19,12.08,7.72,17.63,7.74c3.48,0,6.79-1.06,9.86-3.15c2.45-1.68,3.92-3.53,4.03-3.67c0-0.01,0-0.01,0.01-0.01     c0-0.01,0-0.01,0.01-0.01c0.93-1.28,2.44-2.05,4.03-2.05c1.06,0,2.08,0.33,2.939,0.96c1.08,0.78,1.79,1.94,2,3.26     c0.21,1.32-0.109,2.64-0.899,3.72l-0.01,0.02c-0.511,0.68-2.421,3.09-5.75,5.53C405.91,178.06,400.359,181,393.069,181z"></path></g><g><path d="M160.57,221h-0.08c-3.69,0-7.51-0.78-11.35-2.32c-4.2-1.68-8.43-4.27-12.57-7.71c-6.32-5.19-12.08-7.73-17.63-7.75     c-3.48,0-6.79,1.06-9.86,3.15c-2.49,1.7-3.95,3.57-4.03,3.68l0,0c-0.94,1.29-2.46,2.06-4.05,2.06c-1.06,0-2.08-0.33-2.94-0.95     c-1.08-0.79-1.79-1.95-2-3.27c-0.21-1.32,0.11-2.64,0.9-3.72l0.01-0.02c0.66-0.88,2.53-3.17,5.75-5.52     c3.37-2.47,8.92-5.41,16.22-5.41H119c3.7,0,7.52,0.78,11.35,2.32c4.2,1.68,8.43,4.28,12.58,7.72c6.32,5.19,12.09,7.72,17.63,7.74     c3.48,0,6.8-1.06,9.86-3.15c2.55-1.74,4.03-3.67,4.04-3.69c0,0,0.01,0,0.01-0.01c0.94-1.28,2.45-2.04,4.04-2.04     c1.05,0,2.07,0.33,2.93,0.96c1.08,0.78,1.79,1.94,2,3.26c0.21,1.32-0.11,2.64-0.9,3.72l-0.01,0.02     c-0.65,0.88-2.52,3.17-5.75,5.53C173.41,218.06,167.86,221,160.57,221z"></path></g><g><path d="M238.06,221H238c-3.7,0-7.52-0.78-11.36-2.32c-4.19-1.68-8.42-4.27-12.57-7.71c-6.32-5.19-12.08-7.73-17.63-7.75     c-3.48,0-6.8,1.06-9.86,3.16c-2.49,1.69-3.95,3.56-4.03,3.67c0,0,0,0-0.01,0c-0.93,1.29-2.45,2.06-4.04,2.06     c-1.06,0-2.08-0.33-2.94-0.95c-1.08-0.79-1.79-1.95-2-3.27c-0.21-1.32,0.11-2.64,0.9-3.72v-0.01c0.51-0.68,2.41-3.09,5.76-5.53     c3.37-2.47,8.92-5.41,16.22-5.41h0.06c3.7,0,7.52,0.78,11.36,2.32c4.19,1.68,8.43,4.28,12.57,7.72     c6.32,5.19,12.09,7.72,17.63,7.74c3.48,0,6.79-1.06,9.86-3.15c2.46-1.68,3.94-3.55,4.03-3.67c0,0,0-0.01,0.01-0.01v-0.01     c0.01,0,0.01,0,0.01-0.01c0.94-1.28,2.45-2.04,4.03-2.04c1.06,0,2.08,0.33,2.939,0.96c2.23,1.62,2.721,4.75,1.101,6.98     l-0.021,0.03c-0.66,0.88-2.54,3.17-5.74,5.52C250.91,218.06,245.35,221,238.06,221z"></path></g><g><path d="M315.56,221h-0.06c-3.7,0-7.521-0.78-11.36-2.32c-4.189-1.68-8.43-4.27-12.57-7.71c-6.319-5.19-12.09-7.73-17.63-7.75     c-3.479,0-6.79,1.06-9.859,3.15c-2.471,1.69-3.92,3.53-4.03,3.67v0.01c-0.94,1.29-2.46,2.06-4.05,2.06     c-1.06,0-2.08-0.33-2.94-0.95c-2.23-1.62-2.73-4.76-1.11-6.99l0.03-0.03c0.66-0.88,2.54-3.17,5.74-5.51     c3.37-2.47,8.92-5.41,16.21-5.41H274c3.7,0,7.52,0.78,11.35,2.32c4.2,1.68,8.431,4.28,12.58,7.72     c6.32,5.19,12.08,7.72,17.63,7.74c3.471,0,6.79-1.06,9.86-3.15c2.55-1.74,4.02-3.66,4.03-3.68c0.01,0,0.01-0.01,0.01-0.01     c0.939-1.28,2.45-2.05,4.04-2.05c1.06,0,2.08,0.33,2.939,0.96c2.23,1.62,2.721,4.75,1.101,6.98l-0.01,0.02     c-0.66,0.88-2.53,3.17-5.75,5.53C328.41,218.06,322.859,221,315.56,221z"></path></g><g><path d="M393,221c-3.7,0-7.521-0.78-11.36-2.32c-4.2-1.68-8.43-4.27-12.58-7.71c-6.31-5.19-12.08-7.73-17.62-7.75     c-3.479,0-6.79,1.06-9.859,3.15c-2.561,1.75-4.021,3.66-4.04,3.68c-0.931,1.29-2.45,2.06-4.05,2.06     c-1.051,0-2.07-0.33-2.931-0.95c-1.08-0.79-1.79-1.95-2-3.27c-0.21-1.32,0.11-2.64,0.9-3.72l0.01-0.01     c0.51-0.69,2.42-3.1,5.75-5.53c3.37-2.47,8.92-5.41,16.21-5.41h0.07c3.7,0,7.52,0.78,11.35,2.32c4.2,1.68,8.431,4.28,12.58,7.72     c6.32,5.19,12.08,7.72,17.63,7.74c3.48,0,6.79-1.06,9.86-3.15c2.47-1.69,3.93-3.54,4.03-3.67c0-0.01,0-0.01,0.01-0.01     c0-0.01,0-0.01,0.01-0.01c0.93-1.28,2.44-2.05,4.03-2.05c1.06,0,2.08,0.33,2.939,0.96c1.08,0.78,1.79,1.94,2,3.26     c0.21,1.32-0.109,2.64-0.899,3.72l-0.01,0.02c-0.511,0.68-2.421,3.09-5.75,5.53c-3.37,2.46-8.921,5.4-16.211,5.4     C393.04,221,393.02,221,393,221z"></path></g></g></g></svg>