<?xml version="1.0" encoding="UTF-8"?>
<svg width="767px" height="540px" viewBox="0 0 767 540" version="1.1" xmlns="http://www.w3.org/2000/svg" xmlns:xlink="http://www.w3.org/1999/xlink">
    <!-- Generator: Sketch 53.2 (72643) - https://sketchapp.com -->
    <title>teamwork_white_9</title>
    <desc>Created with Sketch.</desc>
    <g id="Page-1" stroke="none" stroke-width="1" fill="none" fill-rule="evenodd">
        <g id="teamwork_white_9" transform="translate(0.000000, -1.000000)" fill-rule="nonzero">
            <path d="M592.58,429 C592.575955,461.066676 611.889342,489.97811 641.513928,502.252299 C671.138513,514.526487 705.239894,507.746096 727.915889,485.072961 C750.591884,462.399827 757.376577,428.299301 745.106126,398.673168 C732.835674,369.047034 703.926677,349.73 671.86,349.73 C628.081057,349.73552 592.591042,385.221058 592.58,429" id="Path" fill="#00B98F"></path>
            <path d="M690.31,438.4 L751.14,420.78 C748.472008,395.312852 733.667811,372.702413 711.392267,360.073321 C689.116724,347.444229 662.112972,346.351702 638.89,357.14 L690.31,438.4" id="Path" fill="#04A87D"></path>
            <polyline id="Path" fill="#303D72" points="657.52 532.38 656.53 532.21988 680.96 391.38 681.95 391.530701 657.52 532.38"></polyline>
            <path d="M661,376.34 C669.274468,396.792309 689.055917,410.244953 711.117918,410.423375 C733.17992,410.601797 753.176358,397.47085 761.780531,377.155044 C770.384704,356.839238 765.901628,333.340699 750.42229,317.619571 C734.942952,301.898443 711.516715,297.051719 691.07,305.34 C663.172199,316.654603 649.714466,348.430427 661,376.34 L661,376.34 Z" id="Path" fill="#00C99C"></path>
            <polyline id="Path" fill="#303D72" points="672.07 450.64 671.65 449.73 729.67 422.64 730.1 423.55 672.07 450.64"></polyline>
            <rect id="Rectangle" fill="#303D72" transform="translate(651.879710, 411.725404) rotate(-53.540000) translate(-651.879710, -411.725404) " x="651.37971" y="382.570404" width="1" height="58.31"></rect>
            <rect id="Rectangle" fill="#303D72" transform="translate(704.114407, 366.573733) rotate(-70.260000) translate(-704.114407, -366.573733) " x="661.789407" y="366.073733" width="84.65" height="1"></rect>
            <rect id="Rectangle" fill="#303D72" transform="translate(725.216821, 357.168207) rotate(-20.100000) translate(-725.216821, -357.168207) " x="703.551821" y="356.668207" width="43.33" height="1"></rect>
            <rect id="Rectangle" fill="#303D72" transform="translate(704.003934, 341.253444) rotate(-45.000000) translate(-704.003934, -341.253444) " x="703.503934" y="331.648444" width="1" height="19.21"></rect>
            <circle id="Oval" fill="#00B98F" transform="translate(229.615540, 309.492033) rotate(-67.500000) translate(-229.615540, -309.492033) " cx="229.61554" cy="309.492033" r="100.41"></circle>
            <path d="M144.58,256.06 C123.238647,290.100289 124.228782,333.581768 147.097502,366.615331 C169.966222,399.648893 210.315915,415.882246 249.69,407.89 L144.58,256.06 Z" id="Path" fill="#04A87D"></path>
            <rect id="Rectangle" fill="#303D72" transform="translate(218.234943, 387.641280) rotate(-82.710000) translate(-218.234943, -387.641280) " x="105.234943" y="387.14128" width="226" height="1"></rect>
            <rect id="Rectangle" fill="#303D72" transform="translate(257.676001, 328.624501) rotate(-36.380000) translate(-257.676001, -328.624501) " x="213.981001" y="328.124501" width="87.39" height="1"></rect>
            <rect id="Rectangle" fill="#303D72" transform="translate(197.297305, 305.545909) rotate(-69.700000) translate(-197.297305, -305.545909) " x="196.797305" y="273.540909" width="1" height="64.01"></rect>
            <path d="M159.11,453.69 C122.712363,490.084712 63.7027485,490.083131 27.3070614,453.686469 C-9.08862568,417.289807 -9.08862568,358.280193 27.3070614,321.883531 C63.7027485,285.486869 122.712363,285.485288 159.11,321.88 C176.59001,339.358606 186.410296,363.065525 186.410296,387.785 C186.410296,412.504475 176.59001,436.211394 159.11,453.69" id="Path" fill="#00C99C"></path>
            <polyline id="Path" fill="#303D72" points="113.93 540.07 82.06 324.21 83.05 324.07 114.92 539.92 113.93 540.07"></polyline>
            <polyline id="Path" fill="#303D72" points="95.95 411.85 95.18 411.22 135.02 362.45 135.8 363.09 95.95 411.85"></polyline>
            <rect id="Rectangle" fill="#303D72" transform="translate(56.330164, 370.012435) rotate(-73.720000) translate(-56.330164, -370.012435) " x="55.8301643" y="334.117435" width="1" height="71.79"></rect>
            <path d="M417.77,419.71 L405.38,438.4 L414.32,459.64 L433.32,468.05 C435.169214,464.712527 434.690896,460.56845 432.13,457.74 L426.31,451.32 L425.25,438.4 L430.92,421.83 L417.77,419.71 Z" id="Path" fill="#19192B"></path>
            <path d="M405.38,268.22 L472.19,319.91 L414.05,419.71 L429.64,427.9 C429.64,427.9 501.71,339.35 506.89,325.14 C512.07,310.93 515.66,302.72 508.49,294.47 C501.32,286.22 405.38,268.22 405.38,268.22 Z" id="Path" fill="#19192B"></path>
            <path d="M557.89,258.6 L510,258.6 L506,242.13 L490.46,242.13 C488.040993,242.13 486.08,240.169007 486.08,237.75 C486.08,235.330993 488.040993,233.37 490.46,233.37 L512.93,233.37 L516.93,249.84 L550.81,249.84 L554.21,233.37 L567.47,233.37 C569.889007,233.37 571.85,235.330993 571.85,237.75 C571.85,240.169007 569.889007,242.13 567.47,242.13 L561.3,242.13 L557.89,258.6 Z" id="Path" fill="#A9C2DC"></path>
            <path d="M563.34,223.74 C563.34,223.74 565.26,224.47 569.71,229.58 C574.16,234.69 573.24,239.46 570.71,243.69 C567.79,248.64 560.19,247.11 560.19,247.11 L561.27,242.11 C561.27,242.11 562.78,238.11 559.39,235.87 C556,233.63 553.28,231.87 553.28,231.87 L563.34,223.74 Z" id="Path" fill="#FBAD83"></path>
            <path d="M485.59,112.48 L506.49,179.37 L564.4,222.88 C563.658588,226.308009 561.692407,229.347945 558.87,231.43 L554.31,234.56 C554.31,234.56 501.71,203.75 491.31,194.72 C480.91,185.69 463.55,134.72 463.55,134.72 L485.59,112.48 Z" id="Path" fill="#E2E2E2"></path>
            <path d="M235.75,432.26 L224.75,456.17 L246.87,471.47 L258.87,476.47 C260.964759,472.645101 260.445377,467.91873 257.57,464.64 L247.68,453.37 L251.68,432.25 L235.75,432.26 Z" id="Path" fill="#303D72"></path>
            <path d="M439.07,474.46 L419.18,467.08 C417.960283,466.551471 417.367465,465.160855 417.830712,463.91488 C418.293959,462.668905 419.651258,462.003333 420.92,462.4 L437.31,468.48 L459.22,439.37 C459.755898,438.655469 460.632287,438.281113 461.519038,438.387949 C462.405789,438.494785 463.168185,439.066582 463.519038,439.887949 C463.869891,440.709316 463.755898,441.655469 463.22,442.37 L439.07,474.46 Z" id="Path" fill="#A9C2DC"></path>
            <path d="M397,258.6 L349.06,258.6 L345.11,242.13 L329.55,242.13 C327.130993,242.13 325.17,240.169007 325.17,237.75 C325.17,235.330993 327.130993,233.37 329.55,233.37 L352,233.37 L356,249.84 L389.88,249.84 L393.29,233.37 L406.55,233.37 C408.969007,233.37 410.93,235.330993 410.93,237.75 C410.93,240.169007 408.969007,242.13 406.55,242.13 L400.4,242.13 L397,258.6 Z" id="Path" fill="#A9C2DC"></path>
            <path d="M384.13,228.75 C384.13,228.75 392.2,230.75 395.18,232.97 C398.16,235.19 394.33,246.27 398.18,247.72 C402.03,249.17 407.58,248.51 409.18,246.29 C410.78,244.07 410.32,234 409.24,228.95 C408.16,223.9 387.16,217.85 387.16,217.85 L384.13,228.75 Z" id="Path" fill="#FBAD83"></path>
            <path d="M258.13,480.91 C257.785221,480.905032 257.445031,480.83019 257.13,480.69 L238.87,472.47 L263.78,439.37 C264.315898,438.655469 265.192287,438.281113 266.079038,438.387949 C266.965789,438.494785 267.728185,439.066582 268.079038,439.887949 C268.429891,440.709316 268.315898,441.655469 267.78,442.37 L246.63,470.48 L259.2,476.13 C260.270709,476.611413 260.862225,477.772976 260.621831,478.922057 C260.381438,480.071138 259.373898,480.89817 258.2,480.91 L258.13,480.91 Z" id="Path" fill="#A9C2DC"></path>
            <path d="M251.49,240.67 C251.49,240.67 309.66,277.33 313.38,296.99 C317.1,316.65 251.89,444.38 251.89,444.38 L232.57,434.85 L277,319.58 C277,319.58 232.34,288.22 214.69,272.28 C197.04,256.34 251.49,240.67 251.49,240.67 Z" id="Path" fill="#0CBFD1"></path>
            <path d="M302.73,114.72 C302.73,114.72 287.82,116.85 280.59,126.99 C273.36,137.13 309.86,203.99 309.86,203.99 L384.86,231.41 C384.86,231.41 388.3,228.23 389.18,224.26 C389.725838,221.676934 390.033793,219.049278 390.1,216.41 L329.43,188.64 C329.43,188.64 310.05,123.64 307.63,119.26 C304.79,114.12 302.73,114.72 302.73,114.72 Z" id="Path" fill="#F89900"></path>
            <path d="M98.9,439.25 C98.9657527,441.534869 99.3014159,443.803952 99.9,446.01 L98.9,439.25 M128,409.31 C113.524225,409.336361 101.260853,419.981649 99.2,434.31 L99.92,439.18 C99.92,438.93 99.92,438.67 99.92,438.42 C99.9089217,423.622498 111.371674,411.350134 126.135536,410.352866 C140.899399,409.355597 153.908439,419.974941 155.887463,434.639512 C157.866488,449.304083 148.137773,462.991951 133.637704,465.943931 C119.137635,468.89591 104.831808,460.101087 100.92,445.83 L101.63,450.67 C107.72136,463.764018 122.496603,470.406818 136.333682,466.272424 C150.170761,462.138031 158.879805,448.478341 156.789243,434.188921 C154.698681,419.899501 142.441536,409.307193 128,409.31" id="Shape" fill="#07B496"></path>
            <path d="M99.17,434.29 C98.9768099,435.651476 98.8799027,437.024885 98.88,438.4 C98.88,438.68 98.88,438.97 98.88,439.25 L99.88,446.01 C100.316077,447.601433 100.884733,449.153529 101.58,450.65 L100.87,445.81 C100.270722,443.641557 99.9349675,441.408791 99.87,439.16 L99.15,434.29" id="Path" fill="#303D72"></path>
            <path d="M83.12,480.45 C89.8143814,487.593192 98.1131649,493.040018 107.33,496.34 L107.16,495.22 C98.6615273,492.083825 90.9709347,487.088869 84.65,480.6 L83.12,480.45 M183.33,411.61 C183.2,412.1 183.07,412.61 182.93,413.09 C193.056952,435.104289 189.076498,461.036884 172.81325,479.000481 C156.550001,496.964078 131.139607,503.495188 108.23,495.6 L108.39,496.71 C131.859745,504.595825 157.769756,497.638674 174.132735,479.057283 C190.495714,460.475891 194.120468,433.894097 183.33,411.61" id="Shape" fill="#E0E2EA"></path>
            <path d="M91.46,388.93 C77.3197892,399.349837 68.3153652,415.32341 66.7213411,432.815627 C65.127317,450.307844 71.096132,467.645893 83.12,480.45 L84.65,480.6 C72.5088398,468.151888 66.317222,451.077686 67.6574549,433.740816 C68.9976877,416.403947 77.7399136,400.484211 91.65,390.05 L91.48,388.93 M123.09,377.09 C112.036722,377.963079 101.428598,381.824036 92.4,388.26 L92.56,389.38 C101.260913,383.055156 111.501025,379.1836 122.21,378.17 L123.09,377.09 M127.99,376.89 C126.8,376.89 125.63,376.89 124.46,376.99 L123.59,378.05 C125.05,377.94 126.51,377.89 127.99,377.89 C151.617829,377.897797 173.086587,391.637802 182.99,413.09 C183.13,412.6 183.26,412.09 183.39,411.61 C173.100759,390.382852 151.589408,376.898937 128,376.89" id="Shape" fill="#07B496"></path>
            <path d="M107.16,495.22 L107.33,496.34 L108.39,496.71 L108.23,495.6 L107.16,495.22 M92.38,388.22 L91.46,388.89 L91.63,390.01 L92.54,389.34 L92.38,388.22" id="Shape" fill="#303D72"></path>
            <path d="M124.44,377 L123.07,377.1 L122.19,378.18 C122.64,378.13 123.11,378.09 123.57,378.06 L124.44,377" id="Path" fill="#303D72"></path>
            <path d="M611.59,377.53 C589.528188,380.990181 571.074789,396.135786 563.378801,417.099283 C555.682814,438.06278 559.953336,461.550648 574.535931,478.463493 C589.118525,495.376339 611.72216,503.057028 633.59,498.53 L632.27,497.78 C610.682312,502.435506 588.272833,494.960599 573.802794,478.277675 C559.332754,461.594751 555.100536,438.353682 562.760771,417.640816 C570.421006,396.927951 588.756963,382.033266 610.6,378.78 C610.92,378.39 611.24,378 611.6,377.62" id="Path" fill="#E0E2EA"></path>
            <path d="M667,477.05 C658.153376,487.713105 645.914849,495.016685 632.33,497.74 L633.65,498.49 C646.450526,495.657987 658.012143,488.812109 666.65,478.95 L666.96,477.05 M681.45,446.26 L680.38,446.76 C678.922301,457.229361 674.735463,467.130853 668.24,475.47 L667.91,477.47 C675.280727,468.55061 679.975144,457.726407 681.45,446.25 M677.58,418.25 L677.58,418.37 C679.832228,424.797159 680.97847,431.559653 680.97,438.37 C680.971733,440.772847 680.831488,443.173697 680.55,445.56 L681.61,445.06 C682.477146,437.118175 681.797975,429.083573 679.61,421.4 L677.61,418.25 M620.48,376.86 C617.515113,376.859834 614.554083,377.073723 611.62,377.5 C611.29,377.88 610.97,378.27 610.62,378.66 C629.898367,375.481475 649.524553,381.813704 663.31,395.66 L661.16,392.26 C649.937014,382.304369 635.452331,376.810792 620.45,376.82" id="Shape" fill="#07A78B"></path>
            <path d="M677.89,416.4 L677.58,418.28 L679.58,421.43 C679.086667,419.723333 678.526667,418.056667 677.9,416.43 M661.17,392.36 L663.32,395.76 C669.214522,401.679802 673.826961,408.749939 676.87,416.53 L677.18,414.64 C673.580879,406.10973 668.113186,398.495968 661.18,392.36" id="Shape" fill="#0B987B"></path>
            <path d="M668.24,475.47 C667.82,476 667.4,476.53 666.96,477.05 L666.65,478.95 C667.08,478.47 667.5,477.95 667.91,477.48 L668.24,475.48 M677.17,414.62 L676.86,416.51 C677.1,417.14 677.34,417.77 677.56,418.41 L677.56,418.29 L677.87,416.41 C677.64,415.8 677.4,415.21 677.15,414.62" id="Shape" fill="#303D72"></path>
            <path d="M681.59,445.09 L680.53,445.59 L680.38,446.76 L681.45,446.26 C681.45,445.87 681.55,445.48 681.59,445.09" id="Path" fill="#303D72"></path>
            <rect id="Rectangle" fill="#A9C2DC" transform="translate(566.716290, 319.879574) rotate(-24.420000) translate(-566.716290, -319.879574) " x="562.01629" y="247.469574" width="9.4" height="144.82"></rect>
            <rect id="Rectangle" fill="#A9C2DC" transform="translate(412.309405, 325.137937) rotate(-21.030000) translate(-412.309405, -325.137937) " x="407.869405" y="251.852937" width="8.88" height="146.57"></rect>
            <rect id="Rectangle" fill="#A9C2DC" transform="translate(230.818347, 337.582322) rotate(-20.040000) translate(-230.818347, -337.582322) " x="226.378347" y="277.667322" width="8.88" height="119.83"></rect>
            <path d="M128,337.72 C86.8877296,337.707865 49.8168911,362.463961 34.0754974,400.443264 C18.3341037,438.422567 27.0225841,482.144663 56.0890594,511.21972 C85.1555347,540.294777 128.875064,548.996164 166.859012,533.265982 C204.84296,517.535801 229.609998,480.472272 229.61,439.36 C229.610002,383.237492 184.122506,337.736565 128,337.72 L128,337.72 Z M128,525.51 C80.4219709,525.504477 41.8563186,486.931363 41.8600003,439.353334 C41.8636819,391.775305 80.4353036,353.20816 128.013333,353.210001 C175.591362,353.211841 214.16,391.781971 214.16,439.36 C214.16,462.210133 205.082136,484.124239 188.923714,500.280785 C172.765292,516.437331 150.850133,525.512652 128,525.51 Z" id="Shape" fill="#A9C2DC"></path>
            <polygon id="Path" fill="#F08E97" points="267.43 442.55 122.04 442.55 215.76 301 221.08 304.52 133.91 436.17 267.43 436.17"></polygon>
            <rect id="Rectangle" fill="#FF9398" x="220.01" y="296.99" width="338.86" height="11.55"></rect>
            <rect id="Rectangle" fill="#FF9398" transform="translate(430.890822, 373.655991) rotate(-20.980000) translate(-430.890822, -373.655991) " x="425.115822" y="295.650991" width="11.55" height="156.01"></rect>
            <path d="M620.45,337.72 C579.339548,337.715955 542.274846,362.477182 526.539755,400.457126 C510.804663,438.437071 519.498082,482.155887 548.566131,511.226797 C577.634181,540.297707 621.352141,548.995427 659.333634,533.264072 C697.315127,517.532717 722.08,480.470453 722.08,439.36 C722.074479,383.23197 676.578029,337.731043 620.45,337.72 L620.45,337.72 Z M620.45,525.51 C572.870669,525.51 534.3,486.939331 534.3,439.36 C534.3,391.780669 572.870669,353.21 620.45,353.21 C668.029331,353.21 706.6,391.780669 706.6,439.36 C706.594478,486.937044 668.027044,525.504478 620.45,525.51 Z" id="Shape" fill="#A9C2DC"></path>
            <circle id="Oval" fill="#303D72" cx="127.97" cy="438.4" r="19.97"></circle>
            <polygon id="Path" fill="#FF9398" points="464.68 444.38 263.24 444.38 210.44 298.54 221.68 294.47 271.62 432.42 459.05 432.42 559.92 310.24 569.14 317.85"></polygon>
            <path d="M490.46,438.4 C490.46,454.189821 477.659821,466.99 461.87,466.99 C446.080179,466.99 433.28,454.189821 433.28,438.4 C433.28,422.610179 446.080179,409.81 461.87,409.81 C477.659821,409.81 490.46,422.610179 490.46,438.4 Z" id="Path" fill="#303D72"></path>
            <path d="M296,438.4 C296,454.189821 283.199821,466.99 267.41,466.99 C251.620179,466.99 238.82,454.189821 238.82,438.4 C238.82,422.610179 251.620179,409.81 267.41,409.81 C283.199821,409.81 296,422.610179 296,438.4 L296,438.4 Z" id="Path" fill="#303D72"></path>
            <rect id="Rectangle" fill="#FF9398" transform="translate(582.376703, 354.505293) rotate(-24.420000) translate(-582.376703, -354.505293) " x="576.401703" y="262.415293" width="11.95" height="184.18"></rect>
            <path d="M192.81,265.89 C187.264762,265.682487 182.364883,269.471054 181.17,274.89 C180.803322,276.545933 180.872231,278.268645 181.37,279.89 C183.54,286.5 200.74,286.57 209.53,282.61 C218.32,278.65 230.69,283.2 236.59,280.09 C242.49,276.98 241.66,273.95 226.42,269.75 C216.17,266.9 201.39,266.1 192.81,265.89 Z" id="Path" fill="#19192B"></path>
            <path d="M382.12,265.89 C376.574762,265.682487 371.674883,269.471054 370.48,274.89 C370.113322,276.545933 370.182231,278.268645 370.68,279.89 C372.85,286.5 390.05,286.57 398.84,282.61 C407.63,278.65 420,283.2 425.91,280.09 C431.82,276.98 430.97,273.95 415.73,269.75 C405.48,266.9 390.7,266.1 382.12,265.89 Z" id="Path" fill="#19192B"></path>
            <path d="M631.45,438.4 C631.45,444.475132 626.525132,449.4 620.45,449.4 C614.374868,449.4 609.45,444.475132 609.45,438.4 C609.45,432.324868 614.374868,427.4 620.45,427.4 C626.525132,427.4 631.45,432.324868 631.45,438.4 L631.45,438.4 Z" id="Path" fill="#303D72"></path>
            <circle id="Oval" fill="#19192B" cx="267.43" cy="438.4" r="15.97"></circle>
            <circle id="Oval" fill="#19192B" cx="461.87" cy="438.4" r="15.97"></circle>
            <path d="M267.43,440.9 C266.479621,440.907696 265.607749,440.373716 265.182713,439.523643 C264.757677,438.673571 264.853616,437.655686 265.43,436.9 L289.58,404.8 L309.46,412.18 C310.755108,412.660488 311.415488,414.099892 310.935,415.395 C310.454512,416.690108 309.015108,417.350488 307.72,416.87 L291.33,410.79 L269.43,439.9 C268.954806,440.525839 268.215788,440.895348 267.43,440.9 Z" id="Path" fill="#A9C2DC"></path>
            <path d="M273.77,110.05 C273.77,110.05 260,107.33 246.7,118 C205.37,151 184.82,239 184.82,239 C184.82,239 198.65,236.2 231.93,240.58 C265.84,245.04 268.22,243.95 268.22,243.95 C268.22,243.95 309,133.93 308.59,123.35 C308.18,112.77 298.38,111 298.38,111 L273.77,110.05 Z" id="Path" fill="#F9C200"></path>
            <path d="M184.82,238.91 C184.82,238.91 197.23,236.4 226.82,239.85 L262.36,169.73 L250.79,115.1 C249.364947,115.976536 247.998703,116.945267 246.7,118 C205.37,151 184.82,238.91 184.82,238.91 Z" id="Path" fill="#EDB607"></path>
            <path d="M333.77,225.17 C333.77,225.17 337.55,226.43 338.35,229.35 C339.15,232.27 334.35,238.28 334.87,241.47 C335.39,244.66 338.87,247.84 345.87,245.99 C352.87,244.14 357.17,235.89 356.11,230.05 C355.05,224.21 340.17,214.38 340.17,214.38 L333.77,225.17 Z" id="Path" fill="#FBAD83"></path>
            <path d="M262.84,111.39 C262.84,111.39 247.93,113.52 240.7,123.65 C233.47,133.78 270.37,204.3 270.37,204.3 L335,228.1 C335,228.1 343.17,221.1 344.06,217.1 L344.94,213.1 L284.3,185.35 C284.3,185.35 270.16,120.35 267.73,115.94 C264.9,110.78 262.84,111.39 262.84,111.39 Z" id="Path" fill="#F9C200"></path>
            <path d="M289.15,366.81 L283.15,387.81 L292.71,406.59 L305.86,411.59 C307.568985,407.579757 307.272078,402.996247 305.06,399.24 L299.18,389.24 L302.69,368 L289.15,366.81 Z" id="Path" fill="#303D72"></path>
            <path d="M187.47,238.51 C187.47,238.51 187.13,238.63 186.76,248.81 C186.2,264.23 201.96,275.69 230.94,280.1 C259.92,284.51 302.17,289.49 302.17,289.49 L287,368 L304.93,373.67 C304.93,373.67 340.16,302.39 332.24,281.57 C310.46,224.47 187.47,238.51 187.47,238.51 Z" id="Path" fill="#60D6E6"></path>
            <path d="M446.28,100.83 L436.82,104.12 C423.540336,108.740724 412.401267,118.045207 405.49,130.29 C394.69,149.41 381.27,183.73 376.34,240.67 C376.34,240.67 428.02,267.5 464.47,254.22 C464.47,254.22 467.74,158.06 482.2,133.09 C496.66,108.12 472.2,101.19 472.2,101.19 L446.28,100.83 Z" id="Path" fill="#F0F1F4"></path>
            <path d="M433.39,171.66 L410.89,122.37 C408.874036,124.856095 407.067839,127.505184 405.49,130.29 C394.69,149.41 381.27,183.73 376.34,240.67 C386.979966,245.91058 398.101712,250.110119 409.55,253.21 L433.39,171.66 Z" id="Path" fill="#E2E2E2"></path>
            <path d="M446.28,100.83 C446.28,100.83 451.6,111.83 461.12,112.24 C470.64,112.65 472.19,101.24 472.19,101.24 L446.28,100.83 Z" id="Path" fill="#FFFFFF"></path>
            <path d="M446.28,67.62 L446.28,100.83 C446.28,100.83 451.86,105.57 461.67,105 C470.75,104.47 472.2,101.19 472.2,101.19 L476,84 L446.28,67.62" id="Path" fill="#FBAD83"></path>
            <path d="M472.83,98.28 C469.196174,96.7929576 465.805301,94.7705681 462.77,92.28 C458.216465,88.7552603 454.815346,83.9547045 453,78.49 L472.9,82.27 L476,84 L472.88,98.32" id="Path" fill="#E68D5C"></path>
            <rect id="Rectangle" fill="#1A2249" x="480.98" y="48.25" width="16.86" height="1"></rect>
            <path d="M492.82,25 C492.82,25 495.68,32.08 495.68,38.27 C495.68,43.27 493.68,52.67 493.68,52.67 L482.2,23.4 L492.82,25 Z" id="Path" fill="#1A2249"></path>
            <path d="M492.12,81.09 C483.05,100.17 460.54,88.89 450.9,79.27 C441.26,69.65 442.6,32.89 445.27,25.92 C447.94,18.95 470.21,13.31 482,17.8 C493.79,22.29 501.19,62 492.12,81.09" id="Path" fill="#FBAD83"></path>
            <path d="M495.67,67.64 C495.214107,72.2844293 494.015522,76.8255469 492.12,81.09 C488.6,88.49 483.05,91.33 477.02,91.46 C483.02,91.33 488.61,88.46 492.13,81.08 C494.025589,76.8225713 495.224223,72.2880195 495.68,67.65 L495.68,67.65" id="Path" fill="#DCDDE3"></path>
            <path d="M453.69,52.68 L443.53,52.68 C444.15,63.6 446.25,74.62 450.91,79.27 C456.72,85.07 467.19,91.46 476.59,91.46 L477,91.46 C483,91.33 488.58,88.46 492.1,81.09 C493.995522,76.8255469 495.194107,72.2844293 495.65,67.64 C494,66.49 492.42,66 489,66 C488.38,66 487.71,66 487,66 C478.91,66.35 472.51,72.19 467.7,72.19 C467.216861,72.1927683 466.735653,72.1288316 466.27,72 C460.49,70.31 453.77,52.66 453.77,52.66" id="Path" fill="#D8987A"></path>
            <path d="M446.57,55 C449.863342,54.697686 452.893183,53.0723577 454.966514,50.4957722 C457.039846,47.9191867 457.979301,44.6117631 457.57,41.33 C457.05,37.19 455.83,35.87 456.91,31.95 C459.05,24.14 468.41,24.87 474.73,27.78 C481.05,30.69 487.93,30.69 493.37,26.58 C497.375167,23.4552541 498.376184,17.8115909 495.69,13.5 C492.17,7.81 479.69,0.99 479.69,0.99 C479.69,0.99 481.2,4.4 480.69,6.17 C480.18,7.94 446.92,-2 440.09,12.75 C433.26,27.5 442.37,55.4 442.37,55.4 L446.57,55 Z" id="Path" fill="#1A2249"></path>
            <path d="M440.72,55.21 C440.72,60.13 447.26,64.5 451.28,64.5 C455.3,64.5 455.28,60.13 455.28,55.21 C455.28,50.29 452,46.3 448,46.3 C444,46.3 440.72,50.29 440.72,55.21 Z" id="Path" fill="#FBAD83"></path>
            <path d="M443.72,54.77 C443.25,56.97 445.72,59.55 447.56,59.93 C449.4,60.31 445.5,57.3 446,55.1 C446.5,52.9 449.65,51.85 447.85,51.47 C446.05,51.09 444.19,52.57 443.72,54.77 Z" id="Path" fill="#E68D5C"></path>
            <path d="M491.59,59.25 C487.86,59.25 484.83,55.34 484.83,50.54 C484.83,45.74 487.83,41.82 491.59,41.82 C495.35,41.82 498.34,45.73 498.34,50.54 C498.34,55.35 495.31,59.25 491.59,59.25 Z M491.59,42.82 C488.41,42.82 485.83,46.28 485.83,50.54 C485.83,54.8 488.41,58.25 491.59,58.25 C494.77,58.25 497.34,54.79 497.34,50.54 C497.34,46.29 494.76,42.82 491.59,42.82 Z" id="Shape" fill="#1A2249"></path>
            <path d="M476,59.25 C472.27,59.25 469.24,55.34 469.24,50.54 C469.24,45.74 472.24,41.82 476,41.82 C479.76,41.82 482.75,45.73 482.75,50.54 C482.75,55.35 479.67,59.25 476,59.25 Z M476,42.82 C472.83,42.82 470.24,46.28 470.24,50.54 C470.24,54.8 472.83,58.25 476,58.25 C479.17,58.25 481.75,54.79 481.75,50.54 C481.75,46.29 479.12,42.82 476,42.82 Z" id="Shape" fill="#1A2249"></path>
            <rect id="Rectangle" fill="#1A2249" x="454.27" y="48.25" width="15.57" height="1"></rect>
            <rect id="Rectangle" fill="#1A2249" x="482.2" y="48.25" width="3.13" height="1"></rect>
            <path d="M488.71,72.07 L473.26,72.07 C473.26,72.07 476.39,78.76 481.6,78.95 C486.81,79.14 488.71,72.07 488.71,72.07 Z" id="Path" fill="#FFFFFF"></path>
            <path d="M495.06,72.37 L471.37,72.37 C471.37,72.37 471.73,67.43 475.82,65.5 C479.91,63.57 484.33,65.99 485.73,65.91 C487.13,65.83 490.94,63.35 493.13,64.45 C495.32,65.55 495.06,72.37 495.06,72.37 Z" id="Path" fill="#1A2249"></path>
            <path d="M272.67,109.84 C272.67,109.84 279.88,122.47 289.34,122.07 C298.8,121.67 298.34,110.98 298.34,110.98 L272.67,109.84 Z" id="Path" fill="#FFFFFF"></path>
            <polygon id="Path" fill="#1A2249" points="292.87 98.31 322.9 103 322.9 56.16"></polygon>
            <path d="M273.77,73.4 L272.67,109.84 C277.188757,113.272527 282.784877,114.978315 288.45,114.65 C295.33,114.19 298.38,110.98 298.38,110.98 L302.07,91.43 L273.77,73.4 Z" id="Path" fill="#FBAD83"></path>
            <path d="M273.77,79.64 C274.032255,80.2809944 274.339695,80.9025575 274.69,81.5 C279.53,89.56 289.29,101.4 299.56,104.74 L302.07,91.43 L273.77,73.43 L273.77,79.64 Z" id="Path" fill="#E68D5C"></path>
            <path d="M324.35,88.26 C314.35,109.32 289.14,92.38 278.5,81.76 C267.86,71.14 269.71,35.08 272.65,27.4 C275.59,19.72 300.17,13.48 313.14,18.4 C326.11,23.32 334.36,67.21 324.35,88.26 Z" id="Path" fill="#FBAD83"></path>
            <path d="M287.7,106.9 L262.35,98.31 C262.35,98.31 258.63,40 266.74,25.38 C274.85,10.76 296.29,5.85 310.13,11.06 C330.27,18.64 329.98,45.39 330.27,47.75 C325.598297,46.8951544 320.813326,46.8613144 316.13,47.65 C310.933844,48.602472 305.622888,48.7575857 300.38,48.11 L290.5,46.92 L287.7,106.9 Z" id="Path" fill="#1A2249"></path>
            <path d="M275,68.25 C275,72.25 280.26,75.72 283.48,75.72 C286.7,75.72 286.68,72.21 286.68,68.25 C286.68,64.29 284.07,61.09 280.84,61.09 C277.61,61.09 275,64.3 275,68.25 Z" id="Path" fill="#FBAD83"></path>
            <path d="M290,78.49 C290,81.6214545 287.461455,84.16 284.33,84.16 C281.198545,84.16 278.66,81.6214545 278.66,78.49 C278.66,75.3585455 281.198545,72.82 284.33,72.82 C287.461455,72.82 290,75.3585455 290,78.49 L290,78.49 Z" id="Path" fill="#FFFFFF"></path>
            <path d="M326.64,74 C321.73,74 317.74,69.24 317.74,63.39 L317.74,62.89 L318.24,62.89 L335.53,62.89 L335.53,63.39 C335.53,69.21 331.54,74 326.64,74 Z M318.75,63.85 C318.94,68.93 322.41,73 326.64,73 C330.87,73 334.33,68.93 334.52,63.85 L318.75,63.85 Z" id="Shape" fill="#1A2249"></path>
            <path d="M305.93,74 C301,74 297,69.21 297,63.36 L297,62.86 L297.5,62.86 L314.800168,62.86 L314.8,63.36 C314.83,69.21 310.84,74 305.93,74 Z M298,63.82 C298.2,68.9 301.66,72.97 305.89,72.97 C310.12,72.97 313.58,68.9 313.78,63.82 L298,63.82 Z" id="Shape" fill="#1A2249"></path>
            <rect id="Rectangle" fill="#1A2249" x="285.25" y="62.82" width="33.85" height="1"></rect>
            <path d="M501.31,222.61 C501.31,222.61 508.22,224.07 510.21,229.12 C512.2,234.17 509.95,241.34 507.42,244.12 C504.89,246.9 497.73,245.84 495.6,245.18 C493.47,244.52 500.38,237.7 498.66,235.53 C496.94,233.36 495.34,233.36 495.34,233.36 L491.5,233.36 L489.86,229.67 L501.31,222.61 Z" id="Path" fill="#FBAD83"></path>
            <path d="M431.09,124.41 C427.23,115.75 414.43,114.78 410.18,123.25 C410.1,123.4 406.46,128.74 406.38,128.89 C398.7,144.43 437.55,191.8 437.55,191.8 L490,232.74 C490,232.74 497.77,229.25 500.16,226.33 C501.310742,224.981099 502.376148,223.561672 503.35,222.08 L454.7,181.17 L431.09,124.41 Z" id="Path" fill="#F0F1F4"></path>
            <path d="M380.81,242.82 C380.81,242.82 377.58,253.21 389.44,271.51 C401.3,289.81 500.44,299.75 500.44,299.75 L485,381.45 L502.84,386.24 C502.84,386.24 534.65,310.9 532.54,289.6 C531,274.19 487.61,259.16 463.75,252 C454.355983,249.203679 444.68587,247.436636 434.91,246.73 L380.81,242.82 Z" id="Path" fill="#303D72"></path>
            <path d="M486.78,380.06 L483.48,394.38 L493.54,409 L511.67,415.37 C512.949515,411.595862 511.594679,407.429639 508.34,405.13 L501.91,400.63 L500.91,384.3 L486.78,380.06 Z" id="Path" fill="#303D72"></path>
            <path d="M462.9,440.9 C461.95307,440.9 461.087412,440.364994 460.663932,439.518034 C460.240452,438.671074 460.331842,437.657544 460.9,436.9 L485.05,404.8 L504.93,412.18 C505.78609,412.475537 506.415399,413.210965 506.57505,414.102449 C506.734701,414.993933 506.399724,415.902049 505.699402,416.476315 C504.99908,417.050581 504.042941,417.201184 503.2,416.87 L486.81,410.79 L464.9,439.9 C464.427864,440.529515 463.686893,440.9 462.9,440.9 Z" id="Path" fill="#A9C2DC"></path>
            <path d="M215.24,237 C198.83,237.21 187.47,238.5 187.47,238.5 C187.47,238.5 187.13,238.62 186.76,248.8 C186.2,264.22 201.96,275.68 230.94,280.09 C239.81,281.44 249.94,282.84 259.71,284.09 L215.24,237 Z" id="Path" fill="#50CAD3"></path>
            <path d="M423.94,256.37 L458.08,250.48 C450.479126,248.568669 442.726702,247.320652 434.91,246.75 L380.81,242.82 C380.81,242.82 377.58,253.21 389.44,271.51 C391.27,274.33 395.17,276.95 400.44,279.36 L423.94,256.37 Z" id="Path" fill="#27345E"></path>
        </g>
    </g>
</svg>