<svg xmlns="http://www.w3.org/2000/svg" viewBox="0 0 866.58 547.41"><defs><style>.cls-1{fill:#19192b;}.cls-2{fill:#a55b3a;}.cls-3{fill:#303d72;}.cls-4{fill:#a9c2dc;}.cls-5{fill:#26335e;}.cls-6{fill:#f89900;}.cls-7{fill:#fbad83;}.cls-8{fill:#e2e2e2;}.cls-9{fill:#f9c200;}.cls-10{fill:#fff;}.cls-11{fill:#e68d5c;}.cls-12{fill:#1a2249;}.cls-13{fill:#dcdde3;}.cls-14{fill:#d8987a;}.cls-15{fill:#edb607;}.cls-16{fill:#f0f1f4;}.cls-17{fill:#e5e5e5;}.cls-18{fill:#8e4a2f;}.cls-19{fill:#0cbfd1;}.cls-20{fill:#60d6e6;}.cls-21{fill:#ff9398;}.cls-22{fill:#ffb0b2;}.cls-23{fill:#00c99c;}.cls-24{fill:#00b98f;}.cls-25{fill:#f4828b;}</style></defs><title>teamwork_white_2</title><g id="Layer_2" data-name="Layer 2"><g id="Layer_2-2" data-name="Layer 2"><path class="cls-1" d="M170.33,521.35v25.73h58.78a11.52,11.52,0,0,0-7.71-10.88l-25.83-9.09-3-11.11Z"/><path class="cls-1" d="M83.85,517.24l-2.11,29.67h55a11.61,11.61,0,0,0-8.17-11.08l-25-7.73L101.75,516Z"/><path class="cls-2" d="M249.19,194.26a40.51,40.51,0,0,1,9.6.83c5.49,1.09,13,7,13,7l-13,8.4-13.57-6.76Z"/><path class="cls-1" d="M172,276.14l17.55,132.21,8.05,112.75s-10.25,4.55-19.85,3.77l-9.59-.77L151.12,410,108.17,283.42Z"/><path class="cls-3" d="M152.16,282.38s-2.42,124.19-2.37,131.92-44.71,111.38-44.71,111.38S95.6,527.4,87.81,523L80,518.58l30.45-116.06s-26.65-91.38-25.2-114.24l1.44-22.87Z"/><rect class="cls-3" x="287.98" y="385.13" width="18.98" height="161.79"/><path class="cls-3" d="M359.6,547.08h0a14.21,14.21,0,0,0-14.21-14.21H249.55a14.21,14.21,0,0,0-14.21,14.21Z"/><path class="cls-3" d="M338.73,380.56H252.12a34.63,34.63,0,0,1-34.63-34.62V220.66a12,12,0,0,1,12-12h97.24a12,12,0,0,1,12,12Z"/><path class="cls-4" d="M348.6,370.41H254.39a27,27,0,0,1-27-27V220.66a12,12,0,0,1,12-12H336.6a12,12,0,0,1,12,12Z"/><path class="cls-4" d="M391.56,370.41H253.44v10.15H391.56a5.08,5.08,0,0,0,0-10.15Z"/><path class="cls-3" d="M270.64,370.41H249v10.15h21.61a5.08,5.08,0,1,0,0-10.15Z"/><rect class="cls-3" x="283.54" y="380.56" width="27.86" height="18.1"/><rect class="cls-3" x="581" y="385.13" width="18.98" height="161.79"/><path class="cls-3" d="M528.37,547.08h0a14.21,14.21,0,0,1,14.21-14.21h95.83a14.21,14.21,0,0,1,14.21,14.21Z"/><path class="cls-1" d="M561.37,504.62l1.56,25-5.07,3.61A14.52,14.52,0,0,0,551.77,545v1.9h20.85l17.88-20.15L577,495.29Z"/><path class="cls-1" d="M493.62,519.7l-2.29,27.21H428.62A15.69,15.69,0,0,1,439,532.15l29.95-10.8,9.87-12.07Z"/><path class="cls-3" d="M549.23,380.56h86.61a34.62,34.62,0,0,0,34.63-34.62V220.66a12,12,0,0,0-12-12H561.23a12,12,0,0,0-12,12Z"/><path class="cls-4" d="M539.37,370.41h94.21a27,27,0,0,0,27-27V220.66a12,12,0,0,0-12-12H551.37a12,12,0,0,0-12,12Z"/><path class="cls-4" d="M496.41,370.41H634.52v10.15H496.41a5.08,5.08,0,1,1,0-10.15Z"/><path class="cls-3" d="M617.32,370.41h21.62v10.15H617.32a5.08,5.08,0,0,1,0-10.15Z"/><polygon class="cls-1" points="94.36 546.91 81.74 546.91 123.61 313.45 136.23 313.45 94.36 546.91"/><path class="cls-5" d="M164.09,108.16,184.54,185l66.36,8.25a12.32,12.32,0,0,1,0,10.34l-2.6,5.26s-62.84,3.22-76.28-2.94S164.09,108.16,164.09,108.16Z"/><path class="cls-3" d="M114.21,96.72s-22.88,5.55-29.87,11.44c-6.31,5.31-1.91,133-.38,161.62a113.32,113.32,0,0,1,0,12.5L82.7,303.43s57.05,7.2,78,1.51S180.82,303,180.82,303,169.5,117.32,163.2,105.8c-5.22-9.53-32.9-10.67-32.9-10.67Z"/><path class="cls-6" d="M540.82,200.81s-15.17,36.12-19,57.24-5.7,22.55-5.7,22.55L484.78,287v10.31h80.09Z"/><path class="cls-7" d="M392,227.94s4.74-2.67,9.29-4.94,29.52,1.85,29.52,1.85-1,3.17-2.15,3.77-13.51-.72-13.51-.72a8,8,0,0,1,.72,3.58c0,2.28,0,4.91-3.29,6.58s-14.28,0-14.28,0Z"/><path class="cls-8" d="M327.53,210.49s6.65,31.92,9.7,47c1.46,7.22,54.86-30.17,54.86-30.17s6.58,2.74,8.23,7.13l1.65,4.39s-51.19,40.66-61.72,45.32c-13.17,5.83-22.28,2.68-27.6-10.9S327.53,210.49,327.53,210.49Z"/><path class="cls-9" d="M596.9,187s27.44,2.72,36.71,18.15,7.73,130.66,7.73,130.66H527.77s5.41-125.62,13.91-136.48S575.39,187,575.39,187Z"/><polygon class="cls-10" points="565.88 187.37 558.5 200.04 571.09 196.61 580.9 203.05 594 186.98 565.88 187.37"/><path class="cls-7" d="M594,150.93v36s-6.06,5.14-16.71,4.53c-9.85-.57-11.42-4.14-11.42-4.14l-4.07-18.7L594,150.93"/><path class="cls-11" d="M565.19,184.21a42.5,42.5,0,0,0,10.91-6.51,31.61,31.61,0,0,0,10.62-15l-21.6,4.11-3.32,1.83,3.39,15.54"/><rect class="cls-12" x="538.04" y="129.96" width="18.3" height="1"/><path class="cls-12" d="M543.49,104.69s-3.1,7.68-3.1,14.4c0,5.41,2.18,15.64,2.18,15.64L555,103Z"/><path class="cls-7" d="M544.25,165.55c9.84,20.71,34.27,8.48,44.73-2s9-50.35,6.12-57.9S568,92,555.27,96.87s-20.87,48-11,68.68"/><path class="cls-13" d="M540.39,151h0a47.06,47.06,0,0,0,3.85,14.58c3.91,8.24,10.13,11.26,16.87,11.26h0c-6.73,0-13-3-16.86-11.26A47.06,47.06,0,0,1,540.39,151"/><path class="cls-14" d="M597,134.73H586s-7.3,19.15-13.57,21a5.37,5.37,0,0,1-1.55.21c-5.22,0-12.17-6.34-20.94-6.71-.82,0-1.55-.06-2.22-.06-3.75,0-5.43.56-7.29,1.82a47.06,47.06,0,0,0,3.86,14.58c3.91,8.24,10.13,11.26,16.86,11.26,10.2,0,21.56-6.93,27.86-13.22,5.07-5.06,7.34-17,8-28.86"/><path class="cls-12" d="M593.69,137.26a13.26,13.26,0,0,1-11.93-14.85c.56-4.49,1.88-5.92.72-10.17-2.33-8.47-12.48-7.68-19.34-4.53s-14.33,3.16-20.23-1.3a10.77,10.77,0,0,1-2.52-14.2c3.82-6.17,17.4-13.57,17.4-13.57s-1.65,3.7-1.1,5.62,36.62-8.91,44,7.13-2.47,46.29-2.47,46.29Z"/><path class="cls-7" d="M600,137.47c0,5.34-7.1,10.08-11.45,10.08s-4.32-4.74-4.32-10.08,3.53-9.67,7.88-9.67S600,132.13,600,137.47Z"/><path class="cls-11" d="M596.78,137c.5,2.39-2.22,5.19-4.17,5.6s2.24-2.85,1.73-5.24-4-3.52-2-3.94S596.27,134.6,596.78,137Z"/><path class="cls-12" d="M544.83,141.81c-4,0-7.29-4.22-7.29-9.41s3.27-9.42,7.29-9.42,7.29,4.23,7.29,9.42S548.85,141.81,544.83,141.81Zm0-17.83c-3.47,0-6.29,3.78-6.29,8.42s2.82,8.41,6.29,8.41,6.29-3.77,6.29-8.41S548.3,124,544.83,124Z"/><path class="cls-12" d="M561.8,141.81c-4,0-7.29-4.22-7.29-9.41s3.27-9.42,7.29-9.42,7.29,4.23,7.29,9.42S565.82,141.81,561.8,141.81Zm0-17.83c-3.47,0-6.29,3.78-6.29,8.42s2.82,8.41,6.29,8.41,6.29-3.77,6.29-8.41S565.27,124,561.8,124Z"/><rect class="cls-12" x="568.43" y="129.96" width="16.9" height="1"/><path class="cls-15" d="M592.14,270.92l-62.83,35c-1,17.41-1.54,29.87-1.54,29.87H641.34s1.07-80.39-4-115.87l-27.93,6.56Z"/><rect class="cls-12" x="551.62" y="129.96" width="3.39" height="1"/><path class="cls-16" d="M279.87,196.46s-28.49,5.63-34.25,11.39-32.92,66.93-31.68,80.23,15.22,13.31,15.22,13.31h89.69a18.52,18.52,0,0,0,3.76-14.54l-81.52-8.23,16.46-39.91-4.4,111.9L330.68,344s3.91-136.58-7.25-141.1-25.21-6.46-25.21-6.46Z"/><path class="cls-4" d="M511.73,297.27H434.66a3.15,3.15,0,0,1-3.16-3.16v-54.3a3.16,3.16,0,0,1,3.16-3.16h77.07Z"/><path class="cls-3" d="M513.77,297.27h-1.69a2.35,2.35,0,0,1-2.35-2.34V239a2.35,2.35,0,0,1,2.35-2.35h1.69Z"/><path class="cls-10" d="M476.34,267c0,3.49-2.11,6.31-4.73,6.31s-4.73-2.82-4.73-6.31,2.12-6.3,4.73-6.3S476.34,263.48,476.34,267Z"/><rect class="cls-3" x="513.77" y="297.27" width="44.72" height="4.11"/><rect class="cls-4" x="434.1" y="297.27" width="79.67" height="4.11"/><path class="cls-10" d="M279.87,196.46s6.43,9.8,12.09,11,9.77-1.64,10.85-4,.71-6.07.71-6.07Z"/><polygon class="cls-12" points="298.22 185.17 327.09 189.69 327.09 144.66 298.22 185.17"/><path class="cls-7" d="M279.87,161.23v35.23s5.11,5,14.11,4.42c6.61-.44,9.54-3.52,9.54-3.52l3.54-18.79Z"/><path class="cls-11" d="M279.87,167.23a13.53,13.53,0,0,0,.88,1.79c4.65,7.74,14,19.13,23.9,22.34l2.41-12.79-27.19-17.34Z"/><path class="cls-7" d="M328.48,175.52c-9.62,20.23-33.84,3.95-44.07-6.25S276,124.4,278.79,117s26.45-13.38,38.92-8.61S338.1,155.28,328.48,175.52Z"/><path class="cls-12" d="M293.26,193.43l-24.38-8.26s-3.57-56.06,4.23-70.1,28.4-18.77,41.71-13.76c19.36,7.28,19.08,33,19.36,35.26a39.33,39.33,0,0,0-13.6-.09,50.17,50.17,0,0,1-15.13.44l-9.5-1.14Z"/><path class="cls-7" d="M281,156.28c0,3.8,5.05,7.18,8.15,7.18s3.08-3.38,3.08-7.18-2.51-6.88-5.61-6.88S281,152.48,281,156.28Z"/><path class="cls-10" d="M295.44,166.13a5.46,5.46,0,1,1-5.46-5.45A5.45,5.45,0,0,1,295.44,166.13Z"/><path class="cls-12" d="M330.68,161.79c-4.73,0-8.57-4.58-8.57-10.21v-.5l.5,0h16.64v.5C339.26,157.21,335.41,161.79,330.68,161.79ZM323.12,152c.2,4.87,3.51,8.75,7.56,8.75s7.37-3.88,7.57-8.75Z"/><path class="cls-12" d="M310.78,161.79c-4.73,0-8.57-4.58-8.57-10.21v-.5l.5,0h16.64v.5C319.35,157.21,315.51,161.79,310.78,161.79ZM303.21,152c.21,4.87,3.52,8.75,7.57,8.75s7.36-3.88,7.56-8.75Z"/><path class="cls-17" d="M229.16,301.39h25.92l-1.93,49.22L330.68,344s.82-28.57.64-60l-.64-3.4-73.13-41.89-1.63,41.41-14.83-1.5,7.5-18.18-30.44,8.49c-2.82,8.51-4.54,15.57-4.21,19.15C215.17,301.39,229.16,301.39,229.16,301.39Z"/><path class="cls-11" d="M547.83,295.08s-6.63,2.19-11.7,2.19-8.36-4.76-8.36-4.76l21.5-.62Z"/><rect class="cls-12" x="290.9" y="151.04" width="32.54" height="1"/><path class="cls-7" d="M559.32,283.56s-4.25-2.68-12.76-2.95S520.64,291.37,519.75,293a3,3,0,0,0,2.61,4.32c2.33,0,8.5-3.22,11.72-3.56s12.62,3.56,16.67,3.56,9.12-2.54,9.12-2.54Z"/><path class="cls-9" d="M624.62,196.9s15.75,4.78,20,42.25c3.84,33.81,3.29,58.12,0,60.18s-87.53-2.06-87.53-2.06a15.94,15.94,0,0,1-1.85-11.09c1.18-6.48,2.21-6,2.21-6l65.23-1.54s-15.91-44.43-13.17-61.72S624.62,196.9,624.62,196.9Z"/><polygon class="cls-10" points="359.12 301.39 327.09 301.39 344.97 265.45 377 265.45 359.12 301.39"/><path class="cls-11" d="M322.92,288.14s4-2.94,7.46-3,4.47.66,4.47.66l-7.53,15.13-4.54-.61a22.48,22.48,0,0,0,.14-12.17Z"/><path class="cls-7" d="M322.92,288.14a33.77,33.77,0,0,1,9.87-.21c5,.72,15.84,1.95,17.54,5.76s-3.45,7.7-5.19,7.7-18.47.39-20,0a7.66,7.66,0,0,1-2.4-1.08S325,291.89,322.92,288.14Z"/><path class="cls-10" d="M114.21,96.72s15.18,25.83,21.86,46.91c6.34,20,6.49,28.43,6.49,28.43V95.91Z"/><path class="cls-2" d="M114.21,60.68v36s6.05,5.15,16.7,4.53c9.85-.57,11.42-4.14,11.42-4.14l4.07-18.7Z"/><path class="cls-18" d="M143,94c-5.29,1.18-11.42-2.11-16-5.75-8.43-6.7-11.84-20-11.84-20l27.9,8.38,3.32,1.83Z"/><path class="cls-12" d="M163.37,17.3s4.78,1.79,4.45,13.18c-.16,5.41-2.18,15.64-2.18,15.64L153.19,14.33Z"/><path class="cls-2" d="M164,76.94c-9.85,20.71-34.28,8.48-44.74-2s-9-50.34-6.12-57.9,27.08-13.69,39.83-8.81S173.8,56.23,164,76.94Z"/><path class="cls-5" d="M82.7,303.43s7.78,1,18.64,1.93l68.94-146.54-56.07,32.54L81.08,147.1C80.68,188.63,83,250.84,84,269.78a113.32,113.32,0,0,1,0,12.5Z"/><path class="cls-12" d="M126.82,42.34s2.72,22.93,9,24.76c5.36,1.57,12.82-6.09,22.49-6.51,5.38-.23,7.32.29,9.51,1.77A47.06,47.06,0,0,1,164,76.94c-9.84,20.71-34.27,8.48-44.73-2-5.06-5-7.34-17-8-28.85Z"/><path class="cls-12" d="M122.72,50.56s3,.3,4.25-1.5-2.31-11.92,1.27-22.67c2.55-7.67,14.14-12.12,23.62-10.25s11.88,2.7,12.85-.06-2.84-9.23-6.13-11.81S139.86-2.82,127,2.42s-15.43,8.75-18.31,17.08-1,29.21,0,30.55S122.72,50.56,122.72,50.56Z"/><path class="cls-2" d="M108.17,48.86c0,5.34,7.1,10.08,11.45,10.08s4.32-4.74,4.32-10.08-3.53-9.67-7.88-9.67S108.17,43.52,108.17,48.86Z"/><path class="cls-12" d="M167.82,62.36s0,25.09-3,29.62-12.66,5.51-17.05,3.62-11.52-8.7-13.3-14.46,26-14,26-14Z"/><path class="cls-5" d="M129,291.21l-43.72-2.9c-1.12,18.11,15.25,78.86,22.18,103.59Z"/><path class="cls-3" d="M220,158.92H182.45a3.26,3.26,0,0,1-2.92-3.5l7.82-68a3.26,3.26,0,0,1,2.92-3.5h37.57a3.25,3.25,0,0,1,2.92,3.5l-7.82,68A3.27,3.27,0,0,1,220,158.92Z"/><path class="cls-4" d="M223.93,158.92H186.36a3.27,3.27,0,0,1-2.92-3.5l7.83-68a3.25,3.25,0,0,1,2.91-3.5h37.57a3.25,3.25,0,0,1,2.92,3.5l-7.82,68A3.26,3.26,0,0,1,223.93,158.92Z"/><path class="cls-10" d="M213.83,112.11c-.3,3.7-2.25,6.51-4.36,6.27s-3.58-3.45-3.28-7.16,2.25-6.52,4.36-6.27S214.13,108.4,213.83,112.11Z"/><path class="cls-2" d="M179.07,143.63s21.19-6.87,24.38-11.5,3.29-13.06,1.13-15.33-18,3.6-21,3.91.1-1.2.1-1.2l.89-6.38a23,23,0,0,0-7.89,5.11c-4.32,4-4.11,8.64-4.73,10.29s-4.15,5.45-4.15,5.45Z"/><path class="cls-3" d="M89.44,105s7-1.13,11.56,4.21,13.13,74.84,13.13,74.84l54.34-55s8.23,5.18,10.29,9.93l2.05,4.75s-46.13,68.61-66.68,74.63-39-68.18-39-88.06S89.44,105,89.44,105Z"/><path class="cls-18" d="M111.05,46.36c-.5,2.39,2.22,5.19,4.17,5.6s-2.24-2.85-1.73-5.24,4-3.52,2-3.94S111.56,44,111.05,46.36Z"/><polygon class="cls-4" points="87.13 546.91 74.51 546.91 116.37 313.45 128.99 313.45 87.13 546.91"/><polygon class="cls-4" points="245.38 546.91 258 546.91 216.14 313.45 203.52 313.45 245.38 546.91"/><polygon class="cls-1" points="239.44 546.91 252.06 546.91 210.2 313.45 197.58 313.45 239.44 546.91"/><path class="cls-1" d="M546.78,328.24s-45.91-6.06-58,5.77c-35.25,34.43,70.84,175.27,70.84,175.27s7.09,1.65,14.62-4.52l7.52-6.17L528.71,379Z"/><polygon class="cls-10" points="229.07 301.39 208.75 301.39 205.26 261.17 232.56 261.17 229.07 301.39"/><path class="cls-3" d="M226.5,299.39H211.32l-2.61-30a17,17,0,0,1,7.85-.35c4.19.85,6.59,3.17,9.73,2.2a6.63,6.63,0,0,0,2.82-1.85Z"/><polygon class="cls-16" points="389.78 301.39 410.1 301.39 413.59 261.17 386.29 261.17 389.78 301.39"/><path class="cls-3" d="M392.35,299.39h15.18l1.87-21.59a10.62,10.62,0,0,0-6.29-.15c-4.19.85-6.15-.46-9.3-1.44-1.32-.41-2.86,1.25-3.42.64C391.26,286.86,391.48,289.37,392.35,299.39Z"/><path class="cls-3" d="M618.15,370.41H543.56L497.33,522.58s-23,1.24-25.72-2.05l-2.67-3.3s31.81-165.8,40.79-177.74,17.19-11.93,21.94-12.75,107.27,9.05,107.27,9.05v13.9C634.6,356.5,626.22,370.41,618.15,370.41Z"/><path class="cls-5" d="M532.15,326.74l-.92.15,49.11,43.52h38.29c8.07,0,16.46-13.91,20.79-20.72v-13.9S536.9,325.92,532.15,326.74Z"/><path class="cls-1" d="M335.08,508.46l-5.75,18,14.37,10a11.86,11.86,0,0,1,5.1,9.76v.89H329.87L310,531.22l2.46-27Z"/><polygon class="cls-1" points="524.28 546.91 511.66 546.91 553.52 313.45 566.14 313.45 524.28 546.91"/><path class="cls-3" d="M321.44,509.48l-4.32,13.33,7.92,14,1.85.71a10.09,10.09,0,0,1,6.48,9.42H316.09l-20.37-20.83,7.2-23.25Z"/><path class="cls-19" d="M316,338.15s56-7.25,67.68,4.64c25.71,26.15-44.93,166.69-44.93,166.69s-7.9,5.47-14.77,1.88l-6.87-3.59L348,362.53Z"/><polygon class="cls-4" points="517.04 546.91 504.42 546.91 546.29 313.45 558.91 313.45 517.04 546.91"/><rect class="cls-3" x="576.56" y="380.56" width="27.86" height="18.1"/><path class="cls-20" d="M253.46,342.74l-.42,6.52a19.9,19.9,0,0,0,19.86,21.15h54.19L299.91,507.09S301.6,516,311.15,516c5,0,12.84-4.64,12.84-4.64s45.38-142.24,42.91-156.23-29.75-17.69-44.29-17.28S253.46,342.74,253.46,342.74Z"/><path class="cls-5" d="M103.38,260.72l-.9,42,9.71.78a28.49,28.49,0,0,0,30.74-27.15l.67-15.32S109.6,263,103.38,260.72Z"/><rect class="cls-10" x="74.51" y="301.39" width="618.35" height="12.07"/><rect class="cls-4" x="74.51" y="307.42" width="618.35" height="6.03"/><rect class="cls-3" x="504.42" y="301.39" width="188.44" height="12.07"/><rect class="cls-1" x="504.42" y="307.42" width="188.44" height="6.03"/><path class="cls-5" d="M177.58,255.9l-14.7,2.36S169.5,283,173.41,290a18.38,18.38,0,0,0,5.91,6.75,1.51,1.51,0,0,0,2.32-1.37l-2.37-38.08A1.52,1.52,0,0,0,177.58,255.9Z"/><path class="cls-10" d="M548,155.77h16.77s-3.39,7.26-9.05,7.46S548,155.77,548,155.77Z"/><path class="cls-12" d="M541.06,156.09h25.71s-.39-5.36-4.83-7.45-9.24.53-10.76.45-5.65-2.79-8-1.59S541.06,156.09,541.06,156.09Z"/><path class="cls-10" d="M162.74,70.57s-10.41.27-12.14-.28l-1.74-.55s0,5.09,4.87,6.85,7.47-1.49,8.12-3.29S162.74,70.57,162.74,70.57Z"/><polygon class="cls-4" points="680.24 546.91 692.86 546.91 651 313.45 638.38 313.45 680.24 546.91"/><polygon class="cls-1" points="674.3 546.91 686.92 546.91 645.06 313.45 632.44 313.45 674.3 546.91"/><rect class="cls-4" x="648.3" y="453.8" width="26.33" height="80.75" rx="13.02" ry="13.02"/><rect class="cls-3" x="650.9" y="453.8" width="26.33" height="80.75" rx="13.02" ry="13.02"/><rect class="cls-3" x="618.67" y="466.33" width="90.38" height="80.75" rx="13.02" ry="13.02"/><rect class="cls-21" x="612.09" y="466.33" width="26.33" height="80.75" rx="13.02" ry="13.02"/><path class="cls-22" d="M618.67,536.36V477a10.71,10.71,0,0,1,9.88-10.67c-.28,0-.56,0-.84,0h-4.9A10.72,10.72,0,0,0,612.09,477v59.32a10.72,10.72,0,0,0,10.72,10.72h4.9c.28,0,.56,0,.84,0A10.72,10.72,0,0,1,618.67,536.36Z"/><path class="cls-1" d="M688.87,531.54H660.39a11.89,11.89,0,0,1-11.89-11.89V489h52.25v30.66A11.88,11.88,0,0,1,688.87,531.54Z"/><path class="cls-22" d="M691.47,531.54H663a11.89,11.89,0,0,1-11.89-11.89V489h52.25v30.66A11.89,11.89,0,0,1,691.47,531.54Z"/><rect class="cls-3" y="546.41" width="858.57" height="1"/><rect class="cls-1" x="581" y="398.67" width="18.98" height="16.68"/><rect class="cls-1" x="287.98" y="398.67" width="18.98" height="16.68"/><rect class="cls-3" x="720.29" y="470.96" width="97.4" height="1"/><path class="cls-12" d="M160.15,38.88a1,1,0,0,1-.94-.66,1,1,0,0,1,.61-1.28,16.34,16.34,0,0,1,9.22,0,1,1,0,0,1-.54,1.93,14.35,14.35,0,0,0-8,0A1,1,0,0,1,160.15,38.88Z"/><path class="cls-12" d="M142.58,41.48a1,1,0,0,1-.65-.25,1,1,0,0,1-.1-1.41c.18-.21,4.63-5.21,12.51-2.69a1,1,0,0,1,.65,1.25,1,1,0,0,1-1.26.65c-6.64-2.12-10.35,2.06-10.39,2.1A1,1,0,0,1,142.58,41.48Z"/><rect class="cls-3" x="742.86" y="163.23" width="1" height="295.36"/><rect class="cls-3" x="755.16" y="189.92" width="1" height="295.36"/><rect class="cls-3" x="750.8" y="250.76" width="1" height="244.31"/><rect class="cls-3" x="728.55" y="283.2" width="1" height="244.31"/><rect class="cls-3" x="762.63" y="327.43" width="1" height="203.89"/><path class="cls-3" d="M723.67,220.34c14.77-7.48,31.51-4.11,37.4,7.52S759.77,255,745,262.46s-46.07,35.46-52,23.82S708.9,227.82,723.67,220.34Z"/><path class="cls-3" d="M706.39,369.17c12.67-13.66,34.43-14.08,48.61-.94s15.38,34.88,2.71,48.54-32,58.06-46.14,44.91S693.72,382.83,706.39,369.17Z"/><path class="cls-3" d="M812.4,397.19c-21.73-6-44.4,7.4-50.63,29.94s6.35,45.69,28.08,51.69,69.83,39.41,76,16.87S834.13,403.19,812.4,397.19Z"/><path class="cls-23" d="M695,287c17.19-11.65,38.57-10.11,47.74,3.43s2.68,34-14.51,45.61-51.72,51.43-60.9,37.89S677.85,298.63,695,287Z"/><path class="cls-24" d="M695,287c-16.18,11-34.53,66.27-29,84,14.93-45.14,24.63-58.49,40.09-74.89a75.48,75.48,0,0,1,21.57-15.94C717.78,277.65,705.62,279.82,695,287Z"/><path class="cls-23" d="M793.83,231.83c-19.73-6.48-39.86.87-45,16.41s6.75,33.39,26.48,39.87,63.85,35.26,68.95,19.71S813.56,238.31,793.83,231.83Z"/><path class="cls-24" d="M793.83,231.83c18.57,6.1,51.4,54.24,51,72.85-26.76-39.3-39.74-49.48-59.12-61a75.47,75.47,0,0,0-25.12-9.41C769.4,229.1,781.69,227.84,793.83,231.83Z"/><path class="cls-23" d="M770,171.92c-12.72,5.35-19.62,17.8-15.41,27.82s17.94,13.81,30.66,8.46,47.38-10.13,43.17-20.15S782.69,166.58,770,171.92Z"/><path class="cls-3" d="M742.85,141.87c7.95,5.45,10.9,14.95,6.6,21.21s-14.22,6.9-22.16,1.44-31-13.64-26.68-19.89S734.91,136.41,742.85,141.87Z"/><path class="cls-24" d="M770,171.92c12-5,49.41,4.82,57.3,14.35-30.54-8.06-41.49-7.51-56.23-4.85a50.2,50.2,0,0,0-16.7,6.22C756.53,181.19,762.14,175.21,770,171.92Z"/><path class="cls-23" d="M809.7,335.29c-22.89-15.71-53.26-15.68-67.83.07S734.06,376.6,757,392.31s66.93,67.27,81.49,51.53S832.6,351,809.7,335.29Z"/><path class="cls-24" d="M809.71,335.29c21.54,14.78,40.89,83.91,31,105.14-15.73-56.42-27.84-73.56-47.73-94.93a102.69,102.69,0,0,0-28.57-21.33C778.7,321.92,795.61,325.62,809.71,335.29Z"/><path class="cls-21" d="M799.51,462.85H723.89c-5,0-9.15,18.77-9.15,41.92v41.92h93.91V504.77C808.65,481.62,804.56,462.85,799.51,462.85Z"/><path class="cls-25" d="M743.36,462.85H723.89c-5,0-9.15,18.77-9.15,41.92v41.92h19.48V504.77C734.22,481.62,738.31,462.85,743.36,462.85Z"/><path class="cls-22" d="M802,471.24H721.37a8,8,0,0,1-8-7.95v-9.08H810v9.08A7.94,7.94,0,0,1,802,471.24Z"/><path class="cls-23" d="M668,431.94c9.7-18.36,29.29-27,43.76-19.4s18.31,28.72,8.61,47.08-21.49,69.7-35.95,62S658.32,450.3,668,431.94Z"/><path class="cls-24" d="M668,431.94c-9.14,17.28.65,74.72,13.89,87.81-8-46.86-5.74-63.2.2-84.95a75.38,75.38,0,0,1,11.56-24.2C683.72,413,674,420.64,668,431.94Z"/></g></g></svg>