<svg fill="#00C99C" xmlns="http://www.w3.org/2000/svg" xmlns:xlink="http://www.w3.org/1999/xlink" version="1.1" x="0px" y="0px" viewBox="0 0 130 130" style="enable-background:new 0 0 130 130;" xml:space="preserve"><g><path d="M125.3974609,10.4082031H4.6020508C2.0644531,10.4082031,0,12.4726563,0,15.0107422v84.6152344   c0,2.5375977,2.0644531,4.6020508,4.6020508,4.6020508H50.536377l-9.0212402,13.8168945   c-0.2006836,0.3076172-0.2167969,0.7001953-0.0419922,1.0229492s0.512207,0.5239258,0.8793945,0.5239258h45.2944336   c0.3671875,0,0.7045898-0.2011719,0.8793945-0.5239258s0.1586914-0.715332-0.0419922-1.0229492l-9.020813-13.8168945h45.9338989   c2.5380859,0,4.6025391-2.0644531,4.6025391-4.6020508V15.0107422C130,12.4726563,127.9355469,10.4082031,125.3974609,10.4082031z    M85.7998047,117.5917969H44.199707l8.7255859-13.3637695H77.074707L85.7998047,117.5917969z M128,99.6259766   c0,1.4345703-1.1674805,2.6020508-2.6025391,2.6020508h-47.78125H52.3837891H4.6020508   C3.1674805,102.2280273,2,101.0605469,2,99.6259766v-11.237793h126V99.6259766z M128,86.3881836H2V15.0107422   c0-1.4350586,1.1674805-2.6025391,2.6020508-2.6025391h120.7954102c1.4350586,0,2.6025391,1.1674805,2.6025391,2.6025391   V86.3881836z"></path><path d="M65,99.9511719c2.5600586,0,4.6425781-2.0825195,4.6425781-4.6425781S67.5600586,90.6660156,65,90.6660156   s-4.6425781,2.0825195-4.6425781,4.6425781S62.4399414,99.9511719,65,99.9511719z M65,92.6660156   c1.4570313,0,2.6425781,1.1855469,2.6425781,2.6425781S66.4570313,97.9511719,65,97.9511719   s-2.6425781-1.1855469-2.6425781-2.6425781S63.5429688,92.6660156,65,92.6660156z"></path><path d="M91.9174805,44.034668l-7.0825195-0.7924805c-0.378418-1.2226563-0.8652344-2.4023438-1.4536133-3.5209961   l4.4448242-5.5639648c0.3178711-0.3979492,0.2861328-0.9711914-0.0742188-1.3310547l-6.1801758-6.1801758   c-0.3598633-0.3608398-0.934082-0.3930664-1.3310547-0.0742188l-5.5644531,4.4448242   c-1.1171875-0.5878906-2.296875-1.074707-3.5205078-1.4536133l-0.7924805-7.0825195   c-0.0566406-0.5058594-0.484375-0.8886719-0.9936523-0.8886719h-8.7397461c-0.5092773,0-0.9370117,0.3828125-0.9936523,0.8886719   l-0.7919922,7.0825195c-1.2236328,0.3789063-2.4033203,0.8657227-3.5209961,1.4536133l-5.5644531-4.4448242   c-0.3979492-0.3183594-0.9716797-0.2856445-1.3310547,0.0742188l-6.1801758,6.1801758   c-0.3603516,0.3598633-0.3920898,0.9331055-0.0742188,1.3310547l4.4448242,5.5644531   c-0.5878906,1.1171875-1.074707,2.296875-1.4536133,3.5205078l-7.0825195,0.7924805   c-0.5058594,0.0566406-0.8886719,0.484375-0.8886719,0.9936523v8.7397461c0,0.5092773,0.3828125,0.9370117,0.8886719,0.9936523   l7.0825195,0.7919922c0.3789063,1.2236328,0.8657227,2.4033203,1.4536133,3.5209961l-4.4448242,5.5644531   c-0.3178711,0.3979492-0.2861328,0.9711914,0.0742188,1.3310547l6.1801758,6.1801758   c0.3583984,0.3598633,0.9326172,0.3911133,1.3310547,0.0742188l5.5644531-4.4448242   c1.1176758,0.5878906,2.2973633,1.074707,3.5209961,1.4536133l0.7919922,7.0825195   c0.0566406,0.5058594,0.484375,0.8886719,0.9936523,0.8886719h8.7397461c0.5092773,0,0.9370117-0.3828125,0.9936523-0.8886719   l0.7924805-7.0825195c1.2236328-0.3789063,2.4033203-0.8657227,3.5205078-1.4536133l5.5644531,4.4448242   c0.3974609,0.3173828,0.972168,0.2856445,1.3310547-0.0742188l6.1801758-6.1801758   c0.3603516-0.3598633,0.3920898-0.9331055,0.0742188-1.3310547l-4.4448242-5.5644531   c0.5878906-1.1176758,1.074707-2.2973633,1.4536133-3.5209961l7.0825195-0.7919922   c0.5058594-0.0566406,0.8886719-0.484375,0.8886719-0.9936523v-8.7397461   C92.8061523,44.519043,92.4233398,44.0913086,91.9174805,44.034668z M90.8061523,52.8735352l-6.855957,0.7666016   c-0.4067383,0.0454102-0.7446289,0.3344727-0.8530273,0.7290039c-0.4174805,1.5214844-1.0166016,2.9726563-1.7817383,4.3139648   c-0.203125,0.355957-0.168457,0.7998047,0.0874023,1.1196289l4.3027344,5.3857422l-4.9155273,4.9155273l-5.3857422-4.3027344   c-0.3198242-0.2568359-0.7641602-0.2895508-1.1196289-0.0874023c-1.3408203,0.7651367-2.7919922,1.3642578-4.3134766,1.7817383   c-0.3945313,0.1083984-0.6835938,0.4462891-0.7290039,0.8530273l-0.7670898,6.855957h-6.9506836l-0.7666016-6.855957   c-0.0454102-0.4067383-0.3344727-0.7446289-0.7290039-0.8530273c-1.5214844-0.4174805-2.9726563-1.0166016-4.3139648-1.7817383   c-0.3564453-0.2026367-0.7993164-0.1694336-1.1196289,0.0874023l-5.3857422,4.3027344l-4.9155273-4.9155273l4.3027344-5.3857422   c0.2558594-0.3198242,0.2905273-0.7636719,0.0874023-1.1196289c-0.7651367-1.3413086-1.3642578-2.7924805-1.7817383-4.3139648   c-0.1083984-0.3945313-0.4462891-0.6835938-0.8530273-0.7290039l-6.855957-0.7666016v-6.9506836l6.855957-0.7670898   c0.4067383-0.0454102,0.7446289-0.3344727,0.8530273-0.7290039c0.4174805-1.5214844,1.0166016-2.9726563,1.7817383-4.3134766   c0.203125-0.355957,0.168457-0.7998047-0.0874023-1.1196289l-4.3027344-5.3857422l4.9155273-4.9155273l5.3857422,4.3027344   c0.3203125,0.2563477,0.7636719,0.2900391,1.1196289,0.0874023c1.3413086-0.7651367,2.7924805-1.3642578,4.3139648-1.7817383   c0.3945313-0.1083984,0.6835938-0.4462891,0.7290039-0.8530273l0.7666016-6.855957h6.9506836l0.7670898,6.855957   c0.0454102,0.4067383,0.3344727,0.7446289,0.7290039,0.8530273c1.5214844,0.4174805,2.9726563,1.0166016,4.3134766,1.7817383   c0.3549805,0.2021484,0.7998047,0.1689453,1.1196289-0.0874023l5.3857422-4.3027344l4.9155273,4.9155273l-4.3027344,5.3857422   c-0.2558594,0.3198242-0.2905273,0.7636719-0.0874023,1.1196289c0.765625,1.3422852,1.3652344,2.793457,1.7817383,4.3129883   c0.1079102,0.3950195,0.4462891,0.684082,0.8530273,0.7294922l6.855957,0.7670898V52.8735352z"></path><path d="M65,37.875c-6.3540039,0-11.5234375,5.1694336-11.5234375,11.5234375S58.6459961,60.921875,65,60.921875   s11.5229492-5.1694336,11.5229492-11.5234375S71.3540039,37.875,65,37.875z M65,58.921875   c-5.2514648,0-9.5234375-4.2719727-9.5234375-9.5234375S59.7485352,39.875,65,39.875   c5.2509766,0,9.5229492,4.2719727,9.5229492,9.5234375S70.2509766,58.921875,65,58.921875z"></path></g></svg>